SplineFontDB: 3.0
FontName: Maka
FullName: Maka
FamilyName: Maka
Weight: Regular
Copyright: 
Version: 1
ItalicAngle: 0
UnderlinePosition: 0
UnderlineWidth: 0
Ascent: 819
Descent: 205
LayerCount: 2
Layer: 0 0 "Back"  1
Layer: 1 0 "Fore"  0
HasVMetrics: 1
XUID: [1021 573 120403782 5814901]
OS2Version: 0
OS2_WeightWidthSlopeOnly: 0
OS2_UseTypoMetrics: 0
CreationTime: 1382991690
ModificationTime: 1382996918
PfmFamily: 17
TTFWeight: 400
TTFWidth: 5
LineGap: 92
VLineGap: 92
OS2TypoAscent: 0
OS2TypoAOffset: 1
OS2TypoDescent: 0
OS2TypoDOffset: 1
OS2TypoLinegap: 92
OS2WinAscent: 0
OS2WinAOffset: 1
OS2WinDescent: 0
OS2WinDOffset: 1
HheadAscent: 0
HheadAOffset: 1
HheadDescent: 0
HheadDOffset: 1
OS2Vendor: 'PfEd'
MarkAttachClasses: 1
DEI: 91125
LangName: 1033 
Encoding: UnicodeFull
UnicodeInterp: none
NameList: Adobe Glyph List
DisplaySize: -24
AntiAlias: 1
FitToEm: 1
WinInfo: 126829 53 15
BeginPrivate: 0
EndPrivate
BeginChars: 1114112 32

StartChar: .notdef
Encoding: 0 0 0
Width: 1024
VWidth: 90
LayerCount: 2
Fore
SplineSet
0 0 m 1
 1000 0 l 1
 1000 1024 l 1
 0 1024 l 1
 0 0 l 1
EndSplineSet
Validated: 9
EndChar

StartChar: glyph 1
Encoding: 1488 1488 1
Width: 597
VWidth: 90
Flags: HW
LayerCount: 2
Fore
SplineSet
44.2812 1020.81 m 1
 87.875 902.593 l 1
 46.5195 867.421 42.3672 802.38 43.4688 689.593 c 1
 43.5 689.593 l 1
 43.5 225.656 l 1
 43.4688 225.656 l 1
 43.4688 224 l 1
 249.875 222.312 l 1
 249.875 224 l 1
 249.875 463.312 l 1
 338.125 224 l 1
 554 224 l 1
 515.406 333.844 l 1
 553.123 369.77 557.004 434.213 555.938 543.343 c 1
 555.906 543.343 l 1
 555.906 1007.28 l 1
 555.938 1007.28 l 1
 555.938 1008.94 l 1
 349.531 1010.62 l 1
 349.531 1008.94 l 1
 349.531 806.218 l 1
 303.562 937.124 l 1
 291.111 981.792 266.213 1020.81 219.844 1020.81 c 2
 44.2812 1020.81 l 1
EndSplineSet
Validated: 524841
EndChar

StartChar: glyph 2
Encoding: 1489 1489 2
Width: 589
VWidth: 90
Flags: HW
LayerCount: 2
Fore
SplineSet
245.969 1024.14 m 0
 235.519 1024.14 224.555 1024.01 213.094 1023.77 c 2
 44.5312 1023.77 l 1
 44.5312 887.078 l 1
 201.531 887.078 l 1
 246.521 882.678 257.424 883.052 257.594 788.734 c 1
 257.562 788.734 l 1
 257.562 776.516 l 1
 257.562 471.125 l 1
 257.562 469.438 l 2
 258.148 364.296 248.097 365.159 201.188 360.562 c 1
 44.5312 360.562 l 1
 44.5312 223.906 l 1
 213.094 223.906 l 2
 235.534 223.422 255.977 223.393 274.625 223.906 c 2
 447.5 223.906 l 2
 466.149 223.393 486.591 223.422 509.031 223.906 c 2
 545 223.906 l 1
 545 360.562 l 1
 520.969 360.562 l 1
 473.803 365.185 463.889 364.233 464.594 471.125 c 1
 463.969 471.125 l 2
 463.964 471.689 463.975 472.215 463.969 472.781 c 2
 463.938 472.781 l 1
 463.938 774.859 l 1
 463.969 774.859 l 1
 465.91 973.646 451.491 1024.13 245.969 1024.14 c 0
EndSplineSet
Validated: 524841
EndChar

StartChar: glyph 3
Encoding: 1490 1490 3
Width: 529
VWidth: 90
Flags: HW
LayerCount: 2
Fore
SplineSet
266.625 1025.78 m 0
 256.175 1025.78 245.211 1025.65 233.75 1025.41 c 2
 65.1875 1025.41 l 1
 65.1875 888.719 l 1
 222.188 888.719 l 1
 267.177 884.318 278.08 884.692 278.25 790.375 c 1
 278.219 790.375 l 1
 278.219 778.156 l 1
 278.219 757.812 l 1
 272.686 757.876 267.305 757.906 262.031 757.906 c 0
 56.5098 757.892 42.0586 707.412 44 508.625 c 1
 44.0312 508.625 l 1
 44.0312 228.344 l 1
 44 228.344 l 1
 44 226.688 l 1
 250.406 225 l 1
 250.406 226.688 l 1
 250.406 510.281 l 1
 250.406 522.5 l 2
 250.533 592.656 256.604 610.41 278.219 616.719 c 1
 278.219 226.688 l 1
 278.219 225 l 1
 484.625 226.688 l 1
 484.625 228.344 l 1
 484.594 228.344 l 1
 484.594 776.5 l 1
 484.625 776.5 l 1
 486.566 975.287 472.147 1025.77 266.625 1025.78 c 0
EndSplineSet
Validated: 524841
EndChar

StartChar: glyph 4
Encoding: 1491 1491 4
Width: 568
VWidth: 90
Flags: HW
LayerCount: 2
Fore
SplineSet
42.2363 1023.51 m 1
 42.2363 886.854 l 1
 249.688 886.854 l 1
 249.688 223.688 l 1
 456.031 223.688 l 1
 456.031 886.854 l 1
 524 886.854 l 1
 524 1023.51 l 1
 42.2363 1023.51 l 1
EndSplineSet
Validated: 524809
EndChar

StartChar: glyph 5
Encoding: 1492 1492 5
Width: 540
VWidth: 90
Flags: HW
LayerCount: 2
Fore
SplineSet
290.625 1021.72 m 1
 290.625 1021.16 l 1
 44.125 1021.16 l 1
 44.125 865.812 l 1
 290.625 865.812 l 1
 290.625 222.719 l 1
 497 222.719 l 1
 497 1021.72 l 1
 290.625 1021.72 l 1
44.5625 757.25 m 1
 44.5625 222.719 l 1
 250.938 222.719 l 1
 250.938 757.25 l 1
 44.5625 757.25 l 1
EndSplineSet
Validated: 524809
EndChar

StartChar: glyph 6
Encoding: 1493 1493 6
Width: 298
VWidth: 90
Flags: HW
LayerCount: 2
Fore
SplineSet
44.6309 1023.86 m 1
 251 1023.86 l 1
 251 223.055 l 1
 44.6309 223.055 l 1
 44.6309 1023.86 l 1
EndSplineSet
Validated: 524801
EndChar

StartChar: glyph 7
Encoding: 1494 1494 7
Width: 435
VWidth: 90
Flags: HW
LayerCount: 2
Fore
SplineSet
42.8525 1023.51 m 1
 42.8525 886.854 l 1
 117.688 886.854 l 1
 117.688 223.688 l 1
 324.031 223.688 l 1
 324.031 886.854 l 1
 392 886.854 l 1
 392 1023.51 l 1
 42.8525 1023.51 l 1
EndSplineSet
Validated: 524809
EndChar

StartChar: glyph 8
Encoding: 1495 1495 8
Width: 538
VWidth: 90
Flags: HW
LayerCount: 2
Fore
SplineSet
276.995 1024.12 m 0
 268.62 1024.12 259.835 1024.04 250.808 1023.88 c 1
 250.808 1024 l 1
 44.4326 1024 l 1
 44.4326 224 l 1
 250.808 224 l 1
 250.808 885.062 l 1
 280.615 880.61 288.477 868.685 288.62 788.719 c 2
 288.62 776.5 l 1
 288.62 225.688 l 1
 288.62 224 l 1
 495.026 225.688 l 1
 495.026 227.344 l 1
 494.995 227.344 l 1
 494.995 774.844 l 1
 495.026 774.844 l 1
 496.969 973.631 482.549 1024.11 277.026 1024.12 c 2
 276.995 1024.12 l 0
EndSplineSet
Validated: 524841
EndChar

StartChar: glyph 9
Encoding: 1496 1496 9
Width: 591
VWidth: 90
Flags: HW
LayerCount: 2
Fore
SplineSet
292.766 359.406 m 1
 251.193 359.406 l 1
 251.193 1024 l 1
 44.8184 1024 l 1
 44.8184 224 l 1
 243.506 224 l 1
 243.506 222.75 l 1
 274.109 222.75 l 1
 274.109 222.688 l 1
 533.54 214.188 550.685 255.304 548.266 470.938 c 1
 548 776.062 l 1
 549.988 974.85 535.538 1025.3 330.016 1025.31 c 2
 330.016 1025.31 l 2
 312.598 1025.31 293.814 1024.98 273.547 1024.31 c 1
 273.828 889.5 l 1
 330.891 882.898 342.359 892.771 341.594 777.844 c 2
 341.844 446 l 2
 341.127 367.228 330.528 363.189 292.766 359.406 c 1
EndSplineSet
Validated: 524841
EndChar

StartChar: glyph 10
Encoding: 1497 1497 10
Width: 294
VWidth: 90
Flags: HW
LayerCount: 2
Fore
SplineSet
44.6309 1023.86 m 1
 251 1023.86 l 1
 251 675.254 l 1
 44.6309 675.254 l 1
 44.6309 1023.86 l 1
EndSplineSet
Validated: 524801
EndChar

StartChar: glyph 11
Encoding: 1499 1499 11
Width: 415
VWidth: 90
Flags: HW
LayerCount: 2
Fore
SplineSet
153.011 1023.97 m 0
 135.594 1023.97 116.811 1023.6 96.542 1022.94 c 1
 96.542 1022.88 l 1
 44.2295 1022.88 l 1
 44.2295 886.219 l 1
 115.198 886.219 l 1
 156.391 882.092 165.274 877.762 164.604 776.344 c 1
 164.636 776.344 l 1
 164.636 470.406 l 1
 164.604 470.406 l 1
 165.274 368.988 156.391 364.658 115.198 360.531 c 1
 44.2295 360.531 l 1
 44.2295 223.875 l 1
 96.542 223.875 l 1
 96.542 223.812 l 1
 355.974 215.312 373.148 256.428 371.042 472.062 c 1
 371.011 472.062 l 1
 371.011 774.688 l 1
 371.042 774.688 l 1
 372.984 973.475 358.533 1023.96 153.011 1023.97 c 0
EndSplineSet
Validated: 524841
EndChar

StartChar: glyph 12
Encoding: 1500 1500 12
Width: 613
VWidth: 90
Flags: HW
LayerCount: 2
Fore
SplineSet
44.5928 1023.28 m 1
 42.7168 831.276 56.1045 777.637 242.218 774.188 c 1
 242.218 773.312 l 1
 313.186 773.312 l 1
 354.379 769.186 363.262 764.855 362.593 663.438 c 1
 362.623 663.438 l 1
 362.623 470.406 l 1
 362.593 470.406 l 1
 363.236 372.899 354.959 365.153 317.718 361.031 c 1
 116.655 361.031 l 1
 116.655 223.719 l 1
 297.53 223.719 l 1
 554.058 215.642 571.128 257.273 569.03 472.062 c 1
 569 472.062 l 1
 569 661.781 l 1
 569.03 661.781 l 1
 570.972 860.568 556.521 911.049 350.999 911.062 c 0
 338.871 911.063 326.023 910.864 312.53 910.531 c 1
 260.893 915.878 250.268 910.924 250.999 1021.62 c 1
 44.5928 1023.28 l 1
EndSplineSet
Validated: 524841
EndChar

StartChar: glyph 13
Encoding: 1502 1502 13
Width: 588
VWidth: 90
Flags: HW
LayerCount: 2
Fore
SplineSet
52.583 1026.16 m 1
 52.583 890.531 l 1
 84.6455 890.531 l 1
 43.5205 225.656 l 1
 249.896 225.656 l 1
 299.364 886.719 l 1
 329.172 882.268 337.032 870.342 337.177 790.375 c 2
 337.177 778.156 l 1
 337.177 361.281 l 1
 290.927 361.281 l 1
 290.927 225.656 l 1
 337.177 225.656 l 1
 513.552 225.656 l 1
 543.583 225.656 l 1
 543.583 227.312 l 1
 543.552 227.312 l 1
 543.552 776.5 l 1
 543.583 776.5 l 1
 545.524 975.287 531.104 1025.77 325.583 1025.78 c 2
 325.552 1025.78 l 2
 317.176 1025.78 308.392 1025.69 299.364 1025.53 c 1
 299.364 1025.66 l 1
 185.896 1025.66 l 1
 185.896 1026.16 l 1
 52.583 1026.16 l 1
EndSplineSet
Validated: 524841
EndChar

StartChar: glyph 14
Encoding: 1504 1504 14
Width: 432
VWidth: 90
Flags: HW
LayerCount: 2
Fore
SplineSet
170.104 1023.97 m 0
 152.688 1023.97 133.904 1023.6 113.636 1022.94 c 1
 113.636 1022.88 l 1
 93.6982 1022.88 l 1
 93.6982 886.22 l 1
 132.292 886.22 l 1
 173.485 882.092 182.367 877.763 181.698 776.345 c 1
 181.729 776.345 l 1
 181.729 361.751 l 1
 42.6982 361.751 l 1
 42.6982 224.47 l 1
 181.729 224.47 l 1
 181.729 224.001 l 1
 240.136 224.47 l 1
 276.011 224.47 l 1
 276.011 224.751 l 1
 388.136 225.657 l 1
 388.104 774.688 l 1
 388.136 774.688 l 1
 390.078 973.476 375.627 1023.96 170.104 1023.97 c 0
EndSplineSet
Validated: 524841
EndChar

StartChar: glyph 15
Encoding: 1505 1505 15
Width: 607
VWidth: 90
Flags: HW
LayerCount: 2
Fore
SplineSet
42.9375 1019.84 m 1
 42.9375 882.156 l 1
 77.1562 882.156 l 1
 77.1562 473 l 1
 77.0312 473 l 1
 75.0137 266.429 90.7266 220.033 320.125 223.969 c 1
 549.522 220.033 565.236 266.429 563.219 473 c 1
 563 473 l 1
 563 917.719 l 1
 562.844 917.719 l 1
 562.844 1019.84 l 1
 42.9375 1019.84 l 1
283.531 882.156 m 1
 356.656 882.156 l 1
 356.656 466.375 l 1
 356.781 466.375 l 1
 357.077 380.928 349.904 367.702 320.125 363 c 1
 290.345 367.702 283.142 380.927 283.438 466.375 c 1
 283.531 466.375 l 1
 283.531 882.156 l 1
EndSplineSet
Validated: 524841
EndChar

StartChar: glyph 16
Encoding: 1506 1506 16
Width: 558
VWidth: 90
Flags: HW
LayerCount: 2
Fore
SplineSet
64.4375 1023.72 m 1
 64.4375 361.281 l 1
 42.4375 361.281 l 1
 42.4375 223.969 l 1
 64.4375 223.969 l 1
 64.4375 223.719 l 1
 214.531 223.969 l 1
 252.562 223.969 l 1
 252.562 224.031 l 1
 270.812 224.062 l 2
 279.84 223.965 288.64 223.593 297.031 223.594 c 0
 502.568 223.607 516.973 274.088 515.031 472.875 c 1
 515 472.875 l 1
 515 1020.38 l 1
 515.031 1020.38 l 1
 515.031 1022.03 l 1
 308.625 1023.72 l 1
 308.625 1022.03 l 1
 308.625 471.219 l 1
 308.625 459 l 2
 308.48 379.033 300.62 367.107 270.812 362.656 c 1
 270.812 1023.72 l 1
 64.4375 1023.72 l 1
EndSplineSet
Validated: 524841
EndChar

StartChar: glyph 17
Encoding: 1508 1508 17
Width: 592
VWidth: 90
Flags: HW
LayerCount: 2
Fore
SplineSet
260.969 1024.72 m 0
 55.4463 1024.71 41.0273 974.225 42.9688 775.438 c 1
 42.9688 638.406 l 2
 42.791 620.212 42.7383 603.284 42.9688 587.5 c 2
 42.9688 559.906 l 1
 43.75 559.906 l 1
 50.0117 412.546 93.248 382.812 317.438 390.156 c 1
 317.188 524.969 l 1
 260.104 531.573 248.615 521.686 249.375 636.75 c 1
 249.344 636.75 l 1
 249.344 777.094 l 1
 249.375 777.094 l 1
 248.745 872.509 256.556 881.992 291.781 886.219 c 1
 294.188 886.219 l 1
 335.381 882.092 344.263 877.762 343.594 776.344 c 1
 343.625 776.344 l 1
 343.625 470.406 l 1
 343.594 470.406 l 1
 344.263 368.988 335.381 364.658 294.188 360.531 c 1
 50.0938 360.531 l 1
 50.0938 223.875 l 1
 275.531 223.875 l 1
 275.531 223.812 l 1
 534.962 215.313 552.137 256.429 550.031 472.062 c 1
 550 472.062 l 1
 550 774.688 l 1
 550.031 774.688 l 1
 551.974 973.475 537.521 1023.96 332 1023.97 c 0
 325.936 1023.97 319.619 1023.9 313.219 1023.81 c 0
 294.572 1024.39 277.158 1024.72 260.969 1024.72 c 0
EndSplineSet
Validated: 524841
EndChar

StartChar: glyph 18
Encoding: 1510 1510 18
Width: 596
VWidth: 90
Flags: HW
LayerCount: 2
Fore
SplineSet
41.2812 1024 m 1
 86 902.594 l 1
 248 463.312 l 1
 286.25 359.625 l 1
 44.9229 359.625 l 1
 44.9229 222.312 l 1
 396.625 222.312 l 1
 396.625 224 l 1
 552.125 224 l 1
 513.531 333.844 l 1
 551.248 369.769 555.129 434.213 554.062 543.344 c 1
 554.031 543.344 l 1
 554.031 1007.28 l 1
 554.062 1007.28 l 1
 554.062 1008.94 l 1
 347.656 1010.62 l 1
 347.656 1008.94 l 1
 347.656 806.219 l 1
 301.688 937.125 l 1
 289.236 981.792 263.214 1024 216.844 1024 c 2
 41.2812 1024 l 1
EndSplineSet
Validated: 524841
EndChar

StartChar: glyph 19
Encoding: 1511 1511 19
Width: 540
VWidth: 90
Flags: HW
LayerCount: 2
Fore
SplineSet
290 1021.72 m 1
 290 1021.16 l 1
 43.5 1021.16 l 1
 43.5 865.812 l 1
 290 865.812 l 1
 290 222.719 l 1
 496.375 222.719 l 1
 496.375 1021.72 l 1
 290 1021.72 l 1
43.9375 757.25 m 1
 48.4365 24 l 1
 254.812 24 l 1
 250.312 757.25 l 1
 43.9375 757.25 l 1
EndSplineSet
Validated: 524809
EndChar

StartChar: glyph 20
Encoding: 1512 1512 20
Width: 541
VWidth: 90
Flags: HW
LayerCount: 2
Fore
SplineSet
290.5 1021.72 m 1
 290.5 1021.16 l 1
 44 1021.16 l 1
 44 865.812 l 1
 290.5 865.812 l 1
 290.5 222.719 l 1
 496.875 222.719 l 1
 496.875 1021.72 l 1
 290.5 1021.72 l 1
EndSplineSet
Validated: 524809
EndChar

StartChar: glyph 21
Encoding: 1513 1513 21
Width: 774
VWidth: 90
Flags: HW
LayerCount: 2
Fore
SplineSet
41 1023.84 m 1
 41 223.844 l 1
 247.375 223.844 l 1
 247.375 223.938 l 1
 280.688 223.938 l 1
 280.688 223.719 l 1
 430.781 223.969 l 1
 468.812 223.969 l 1
 468.812 224.031 l 1
 487.062 224.062 l 2
 496.09 223.965 504.891 223.593 513.281 223.594 c 0
 718.819 223.607 733.224 274.088 731.281 472.875 c 1
 731.25 472.875 l 1
 731.25 1020.38 l 1
 731.281 1020.38 l 1
 731.281 1022.03 l 1
 524.875 1023.72 l 1
 524.875 1022.03 l 1
 524.875 471.219 l 1
 524.875 459 l 2
 524.731 379.033 516.87 367.107 487.062 362.656 c 1
 487.062 1023.72 l 1
 280.688 1023.72 l 1
 280.688 361.281 l 1
 258.688 361.281 l 1
 258.688 361.25 l 1
 247.375 361.25 l 1
 247.375 1023.84 l 1
 41 1023.84 l 1
EndSplineSet
Validated: 524841
EndChar

StartChar: glyph 22
Encoding: 1514 1514 22
Width: 591
VWidth: 90
Flags: HW
LayerCount: 2
Fore
SplineSet
330.667 1024.12 m 0
 322.292 1024.12 313.507 1024.04 304.479 1023.88 c 1
 304.479 1024 l 1
 98.1045 1024 l 1
 98.1045 360.844 l 1
 43.8857 360.844 l 1
 43.8857 223.531 l 1
 254.011 223.531 l 1
 254.011 224 l 1
 304.479 224 l 1
 304.479 885.062 l 1
 334.287 880.611 342.148 868.685 342.292 788.719 c 2
 342.292 776.5 l 1
 342.292 225.688 l 1
 342.292 224 l 1
 548.698 225.688 l 1
 548.698 227.344 l 1
 548.667 227.344 l 1
 548.667 774.844 l 1
 548.698 774.844 l 1
 550.641 973.631 536.221 1024.11 330.698 1024.12 c 2
 330.667 1024.12 l 0
EndSplineSet
Validated: 524841
EndChar

StartChar: glyph 23
Encoding: 1498 1498 23
Width: 412
VWidth: 90
Flags: HW
LayerCount: 2
Fore
SplineSet
370.782 774.688 m 1
 370.812 774.688 l 1
 372.754 973.475 358.303 1023.96 152.781 1023.97 c 0
 135.364 1023.97 116.58 1023.6 96.3125 1022.94 c 1
 96.3125 1022.88 l 1
 44 1022.88 l 1
 44 886.22 l 1
 114.968 886.22 l 1
 156.161 882.092 165.044 877.763 164.375 776.345 c 1
 164.405 776.345 l 1
 164.39 22.3447 l 1
 370.797 24.001 l 1
 370.782 774.688 l 1
EndSplineSet
Validated: 524841
EndChar

StartChar: glyph 24
Encoding: 1501 1501 24
Width: 562
VWidth: 90
Flags: HW
LayerCount: 2
Fore
SplineSet
302.188 1023.41 m 0
 286.122 1023.41 268.859 1023.07 250.375 1022.5 c 1
 250.375 1023.19 l 1
 44 1023.19 l 1
 44 224 l 1
 225.5 224 l 1
 250.375 224 l 1
 489.625 224 l 1
 520.125 224 l 1
 520.125 774.125 l 1
 520.219 774.125 l 1
 522.16 972.913 507.709 1023.39 302.188 1023.41 c 0
250.375 887.062 m 1
 303.638 881.38 314.512 887.822 313.781 775.906 c 1
 313.75 775.906 l 1
 313.75 361.312 l 1
 250.375 361.312 l 1
 250.375 887.062 l 1
EndSplineSet
Validated: 524841
EndChar

StartChar: glyph 25
Encoding: 1503 1503 25
Width: 292
VWidth: 90
Flags: HW
LayerCount: 2
Fore
SplineSet
43.2051 1024 m 1
 249.574 1024 l 1
 247.983 24 l 1
 41.6143 24 l 1
 43.2051 1024 l 1
EndSplineSet
Validated: 524801
EndChar

StartChar: glyph 26
Encoding: 1507 1507 26
Width: 592
VWidth: 90
Flags: HW
LayerCount: 2
Fore
SplineSet
548.656 774.688 m 1
 548.686 774.688 l 1
 550.628 973.475 536.177 1023.96 330.655 1023.97 c 0
 324.59 1023.97 318.275 1023.9 311.874 1023.81 c 0
 293.229 1024.39 275.813 1024.72 259.624 1024.72 c 0
 54.1016 1024.71 39.6816 974.225 41.624 775.438 c 1
 41.624 638.406 l 2
 41.4463 620.212 41.3926 603.284 41.624 587.5 c 2
 41.624 559.906 l 1
 42.4053 559.906 l 1
 48.667 412.546 91.9033 382.812 316.092 390.156 c 1
 315.842 524.969 l 1
 258.759 531.573 247.271 521.686 248.03 636.75 c 1
 248 636.75 l 1
 248 777.094 l 1
 248.03 777.094 l 1
 247.4 872.509 255.21 881.992 290.437 886.219 c 1
 292.842 886.219 l 1
 334.035 882.092 342.918 877.762 342.249 776.344 c 1
 342.279 776.344 l 1
 342.264 22.3438 l 1
 548.671 24 l 1
 548.656 774.688 l 1
EndSplineSet
Validated: 524841
EndChar

StartChar: glyph 27
Encoding: 1509 1509 27
Width: 544
VWidth: 90
Flags: HW
LayerCount: 2
Fore
SplineSet
45.4795 1024 m 1
 43.8857 24 l 1
 250.229 24 l 1
 250.948 467.938 l 1
 486.668 463.005 502.673 508.334 500.636 716.875 c 1
 500.011 716.875 l 1
 500.011 1023.78 l 1
 293.636 1023.78 l 1
 293.636 691.938 l 1
 294.167 691.938 l 1
 293.243 617.728 283.814 609.822 251.167 606 c 1
 251.823 1024 l 1
 45.4795 1024 l 1
EndSplineSet
Validated: 524841
EndChar

StartChar: u1F0A1
Encoding: 127137 127137 30
Width: 1024
VWidth: 90
Flags: HW
LayerCount: 2
Fore
SplineSet
110.781 1020.59 m 1
 110.781 268.812 l 1
 119.781 268.812 l 1
 119.781 1014.84 l 1
 573.469 1014.84 l 1
 573.469 1020.59 l 1
 110.781 1020.59 l 1
211.312 979.406 m 1
 160.5 842.25 l 1
 196.062 842.25 l 1
 204.781 867.25 l 1
 260.094 867.25 l 1
 268.719 842.25 l 1
 304.281 842.25 l 1
 253.469 979.406 l 1
 211.312 979.406 l 1
514.531 973.562 m 1
 514.531 973.344 l 1
 470.688 973.344 l 1
 470.688 543.25 l 1
 460.9 555.713 448.877 570.333 434.562 587.125 c 0
 394.322 638.543 365.449 679.794 347.938 710.906 c 1
 347.125 710.906 l 1
 346.281 710.062 l 1
 329.701 679.323 292.058 628.004 233.375 556.094 c 1
 198.537 518.275 181.125 482.311 181.125 448.219 c 2
 181.125 435.375 l 1
 183.625 414.969 l 1
 197.783 376.033 222.287 356.562 257.125 356.562 c 0
 280.785 356.562 300.54 368.972 316.375 393.75 c 1
 329.5 418.344 l 1
 340.125 418.344 l 1
 340.969 417.5 l 1
 340.969 364.405 333.054 323.787 317.219 295.656 c 1
 317.219 293.969 l 1
 377.281 293.969 l 1
 361.818 321.913 354.093 362.247 354.094 414.969 c 2
 354.094 418.344 l 1
 365.844 418.344 l 1
 383.542 377.172 406.716 356.562 435.406 356.562 c 0
 447.329 356.562 458.251 358.62 468.125 362.719 c 0
 468.996 363.235 469.844 363.753 470.688 364.281 c 2
 470.688 221.562 l 1
 479.688 221.562 l 1
 479.688 967.594 l 1
 514.531 967.594 l 1
 514.531 847.844 l 2
 514.531 839.76 512.605 833.635 508.75 829.469 c 0
 504.957 825.302 499.306 823.219 491.844 823.219 c 2
 486.25 823.219 l 1
 486.25 796.062 l 1
 493.531 796.062 l 2
 512.622 796.063 526.86 800.356 536.25 808.938 c 0
 545.702 817.519 550.437 830.494 550.438 847.844 c 2
 550.438 967.594 l 1
 933.375 967.594 l 1
 933.375 973.344 l 1
 550.438 973.344 l 1
 550.438 973.562 l 1
 514.531 973.562 l 1
232.438 947.25 m 1
 251.188 892.688 l 1
 213.594 892.688 l 1
 232.438 947.25 l 1
573.906 744.156 m 1
 572.074 738.973 570.646 733.756 569.5 728.5 c 1
 570.849 732.992 573.478 737.006 578.156 740.156 c 1
 623.26 738.417 697.867 741.63 724.656 736.031 c 1
 693.669 736.298 630.846 734.722 658.438 687.344 c 0
 667.18 673.225 675.558 627.916 647.719 644.469 c 1
 642.296 643.098 636.053 642.004 629.5 641.375 c 1
 640.648 636.273 649.176 624.401 651.344 613.25 c 1
 651.378 613.554 651.402 613.751 651.437 614.062 c 0
 651.535 623.057 650.87 632.873 656.187 640.781 c 1
 657.8 622.455 648.103 573.864 649.937 599.062 c 1
 647.956 595.136 644.405 592.031 638.937 590.375 c 1
 623.633 603.858 614.718 622.804 603.812 639.688 c 1
 604.736 640.253 605.64 640.772 606.562 641.219 c 1
 579.607 643.624 556.774 656.297 571.312 689.562 c 1
 571.294 699.785 567.315 712.501 568.5 723.406 c 1
 560.779 680.7 571.899 635.957 566.375 592.719 c 1
 565.584 471.562 564.481 350.41 565.281 229.25 c 1
 637.255 222.555 709.583 231.519 781.719 227.281 c 1
 819.096 234.441 886.315 204.335 896.094 252.312 c 1
 893.453 295.961 893.143 339.171 894.406 382.938 c 1
 894.048 456.687 893.545 530.438 893.187 604.188 c 1
 887.325 602.561 869.163 623.264 889.187 623.531 c 1
 890.99 619.96 892.25 617.039 893.156 614.562 c 1
 893.111 624.22 893.039 633.874 893 643.531 c 1
 888.533 633.913 865.888 641.859 883.406 656.719 c 1
 889.188 659.5 l 1
 891.06 656.536 892.265 653.948 892.969 651.688 c 1
 892.855 681.744 892.803 711.818 892.781 741.875 c 1
 786.494 740.804 680.171 741.83 573.906 744.156 c 1
892.969 651.688 m 1
 892.979 648.968 892.989 646.25 893 643.531 c 1
 893.91 645.491 894.061 648.18 892.969 651.688 c 1
893.156 614.562 m 1
 893.172 611.104 893.171 607.646 893.187 604.188 c 1
 895.11 604.721 895.66 607.716 893.156 614.562 c 1
606.562 641.219 m 1
 614.132 640.543 622.02 640.657 629.5 641.375 c 1
 622.559 644.551 614.604 645.11 606.562 641.219 c 1
649.938 599.062 m 1
 651.999 603.148 652.339 608.13 651.344 613.25 c 1
 650.644 607.085 650.18 602.398 649.938 599.062 c 1
569.5 728.5 m 1
 569.03 726.934 568.724 725.294 568.531 723.625 c 1
 568.828 725.251 569.147 726.88 569.5 728.5 c 1
836.125 740.469 m 0
 855.168 740.451 874.403 731.203 860.719 713.344 c 1
 861.431 704.165 859 695.404 854.969 687.031 c 1
 856.297 688.5 857.759 690.047 859.469 691.781 c 0
 866.692 698.029 875.61 702.237 884.969 704.062 c 1
 880.565 687.497 850.387 669.023 847.156 673.656 c 1
 839.3 661.932 829.808 651.014 823.531 640.875 c 1
 827.933 647.878 827.52 652.062 825.125 655.062 c 1
 824.652 650.052 820.316 644.272 821.969 657.906 c 1
 816.963 661.295 809.828 663.355 808.938 668.906 c 1
 806.411 667.656 802.827 669.852 806.125 679 c 1
 808.114 677.677 809.384 676.358 810.125 675.125 c 1
 811.174 677.425 812.918 680.112 815.562 683.312 c 1
 815.303 708.027 827.933 737.452 784.219 732.438 c 1
 763.942 733.584 748.379 739.741 779.062 738.156 c 0
 793.013 738.31 806.956 738.175 820.906 738.312 c 1
 825.48 739.772 830.793 740.474 836.125 740.469 c 0
810.125 675.125 m 1
 808.991 672.637 808.665 670.605 808.938 668.906 c 1
 810.654 669.756 811.883 672.2 810.125 675.125 c 1
821.969 657.906 m 0
 823.193 657.078 824.277 656.151 825.125 655.094 c 1
 825.339 657.445 824.681 659.578 822.156 659.406 c 0
 822.076 658.834 822.031 658.421 821.969 657.906 c 0
847.156 673.656 m 1
 850.068 678.001 852.766 682.456 854.969 687.031 c 1
 848.059 679.391 846.077 675.205 847.156 673.656 c 1
877.844 739.219 m 1
 907.546 735.241 861.831 693.041 879.688 731.812 c 1
 878.449 733.646 875.799 736.823 877.844 739.219 c 1
737.625 738.406 m 0
 737.914 738.401 738.3 738.311 738.844 738.125 c 0
 739.151 734.809 735.605 738.445 737.625 738.406 c 0
745.094 738.156 m 1
 747.641 737.197 742.38 736.807 745.094 738.156 c 1
740.812 737.906 m 1
 743.996 736.597 737.478 736.627 740.812 737.906 c 1
749.594 737.5 m 0
 752.208 737.434 744.866 736.39 747.812 737.469 c 0
 748.652 737.509 749.22 737.509 749.594 737.5 c 0
731.781 733.375 m 1
 754.133 731.133 825.166 735.604 809.594 707.375 c 1
 760.243 703.653 709.763 720.391 661.5 710.875 c 1
 651.364 741.121 716.786 725.806 731.781 733.375 c 1
866.531 729.531 m 1
 869.237 728.561 864.853 727.506 866.531 729.531 c 1
883.25 716.844 m 1
 904.067 713.354 870.228 700.259 883.25 716.844 c 1
710.844 710.125 m 0
 717.662 710.123 724.524 709.672 731.156 709.656 c 1
 768.877 688.166 729.821 602.907 691.219 638 c 1
 678.497 656.988 674.325 709.305 698.812 672.312 c 1
 699.66 643.164 729.795 673.45 714.781 666.562 c 1
 699.056 647.746 708.567 714.501 678.406 702.469 c 1
 688.232 708.912 699.48 710.129 710.844 710.125 c 0
868.25 710.125 m 1
 873.586 707.398 864.381 703.926 868.25 710.125 c 1
747.031 707.938 m 1
 754.647 685.105 750.715 669.122 746.469 701.125 c 0
 745.39 703.41 746.882 705.669 747.031 707.938 c 1
752.531 707.938 m 1
 754.134 706.89 755.372 705.473 756.312 703.812 c 1
 756.825 705.008 757.583 706.008 758.594 706.75 c 1
 761.346 695.907 771.809 643.227 786 672 c 1
 786.269 643.026 766.077 665.311 758.375 685.531 c 1
 756.221 669.05 747.433 654.96 755.281 683.188 c 1
 753.852 691.334 750.809 699.536 752.531 707.938 c 1
758.375 685.531 m 1
 759.232 692.089 759.033 699.007 756.312 703.812 c 1
 754.475 699.527 755.661 692.657 758.375 685.531 c 1
670.906 705.594 m 1
 679.303 688.315 657.728 668.678 665.344 688.438 c 1
 664.459 689.168 664.019 691.944 665.875 697.469 c 1
 666.716 695.851 667.201 694.407 667.406 693.156 c 1
 667.944 694.3 668.51 695.526 669.188 696.844 c 2
 669.531 701.344 l 1
 670.906 705.594 l 1
665.344 688.438 m 1
 666.364 687.595 667.993 689.488 667.406 693.125 c 1
 666.573 691.353 665.874 689.813 665.344 688.438 c 1
765.375 705.375 m 1
 773.378 687.214 777.25 651.959 765.75 689.656 c 0
 764.816 694.828 764.573 700.165 765.375 705.375 c 1
665.281 704.938 m 1
 671.068 696.26 660.21 699.154 665.281 704.938 c 1
771.281 704.812 m 1
 784.496 678.821 770.959 665.77 771.281 704.812 c 1
727.531 704.656 m 1
 691.05 697.367 752.765 697.84 727.531 704.656 c 1
660.281 704.25 m 1
 666.433 702.716 654.838 702.486 660.281 704.25 c 1
777.75 702.875 m 1
 787.448 681.379 776.45 675.921 777.75 702.875 c 1
782.719 701.625 m 1
 792.878 683.403 781.569 674.942 782.719 701.625 c 1
788.375 700.25 m 1
 797.318 681.426 789.632 671.18 788.375 700.25 c 1
794.625 698.969 m 1
 805.618 683.826 789.04 689.951 794.625 698.969 c 1
688.688 698.906 m 1
 690.635 687.114 667.104 698.41 688.688 698.906 c 1
720.344 696.844 m 1
 687.409 675.657 757.772 678.724 728.562 695.562 c 1
 720.344 696.844 l 1
721.938 695.375 m 1
 741.492 693.11 706.296 689.888 721.938 695.375 c 1
889.594 693.938 m 1
 893.917 685.808 868.555 676.024 889.375 679.344 c 1
 863.989 657.95 859.892 689.759 889.594 693.938 c 1
731.75 692.906 m 1
 737.444 689.552 726.173 690.726 731.75 692.906 c 1
801.031 689.312 m 1
 807.024 687.511 798.512 684.768 801.031 689.312 c 1
725.031 688.844 m 1
 738.782 688.628 719.97 680.554 725.031 688.844 c 1
694.125 688.781 m 1
 705.963 686.23 684.833 681.872 694.125 688.781 c 1
796.625 687.625 m 1
 804.155 682.113 794.008 676.499 796.625 687.625 c 1
813.25 679.312 m 1
 808.565 669.821 819.982 673.33 813.25 679.312 c 1
873.062 678.344 m 1
 869.679 678.035 874.474 675.768 873.062 678.344 c 1
799.688 677.031 m 1
 810.396 668.432 795.684 661.087 799.688 677.031 c 1
793.438 675.438 m 1
 809.377 660.887 783.462 653.902 793.438 675.438 c 1
674.094 674.688 m 1
 679.049 665.988 671.147 657.702 674.094 674.688 c 1
889.406 673.375 m 1
 883.796 657.157 868.962 673.171 889.406 673.375 c 1
853.969 669.375 m 0
 855.075 669.388 856.567 669.294 858.531 669.031 c 1
 857.427 663.629 846.226 669.282 853.969 669.375 c 0
867.875 668.969 m 1
 870.518 668.916 866.153 668.065 867.875 668.969 c 1
761.844 667.375 m 1
 769.59 654.835 759.743 655.049 761.844 667.375 c 1
871.688 667.062 m 1
 876.014 663.819 863.656 663.891 871.688 667.062 c 1
679.656 666 m 1
 675.988 644.592 662.626 652.47 679.656 666 c 1
888.375 665.469 m 1
 884.185 656.103 869.449 664.192 888.375 665.469 c 1
781.406 663.719 m 1
 777.679 662.438 784.815 662.884 781.406 663.719 c 1
849.719 662.25 m 0
 875.35 662.617 861.045 640.661 844.062 661.875 c 1
 846.137 662.117 848.01 662.226 849.719 662.25 c 0
767.531 659.062 m 1
 782.962 650.034 771.712 637.588 767.531 659.062 c 1
815.75 657.062 m 1
 826.954 651.028 813.897 641.462 815.75 657.062 c 1
852.406 656.969 m 1
 849.667 656.47 855.317 656.61 852.406 656.969 c 1
704.406 655.906 m 0
 702.674 655.863 700.81 655.584 698.812 655.031 c 1
 703.707 638.436 713.946 655.292 704.688 641.406 c 1
 726.531 624.859 724.841 656.415 704.406 655.906 c 0
748.938 655.844 m 1
 754.064 642.037 741.864 641.174 748.938 655.844 c 1
776.219 654.375 m 1
 779.003 653.25 774.217 651.797 776.219 654.375 c 1
845.25 654.344 m 1
 866.705 652.829 859.817 645.889 844.5 653.344 c 1
 845.25 654.344 l 1
765.719 653.063 m 1
 776.299 649.613 764.136 642.061 765.719 653.063 c 1
679.969 651.406 m 1
 679.933 647.967 679.057 645.892 677.906 644.781 c 1
 679.167 645.181 680.746 645.502 682.781 645.656 c 1
 681.608 632.767 669.794 639.861 675.594 643.75 c 1
 671.948 643.537 668.942 649.22 679.969 651.406 c 1
677.906 644.781 m 1
 676.98 644.488 676.194 644.157 675.625 643.781 c 1
 676.398 643.834 677.208 644.107 677.906 644.781 c 1
757.719 650.906 m 1
 763.919 629.802 745.484 623.242 757.719 650.906 c 1
753.312 649.719 m 1
 758.043 638.671 748.496 642.532 753.312 649.719 c 1
868.188 649.5 m 1
 871.526 646.655 863.077 648.31 868.188 649.5 c 1
744.844 649.406 m 1
 748.648 641.664 737.55 640.528 744.844 649.406 c 1
840.906 648.594 m 1
 857.815 647.836 846.049 629.034 840.906 648.594 c 1
801.25 647.75 m 1
 816.242 638.428 796.205 627.358 801.25 647.75 c 1
763.406 647.406 m 1
 763.877 640.563 771.439 637.407 778.281 635.656 c 1
 778.342 635.969 778.631 636.363 779.281 636.844 c 0
 780.093 636.063 780.198 635.536 780 635.219 c 1
 789.805 632.972 796.63 633.401 775.562 629.281 c 0
 774.056 629.919 772.591 630.76 771.219 631.75 c 1
 779.646 622.253 739.323 622.572 763.469 636.781 c 1
 765.706 635.714 767.416 634.741 768.75 633.812 c 1
 765.103 637.354 762.706 642.154 763.406 647.406 c 1
768.75 633.812 m 1
 769.525 633.06 770.345 632.38 771.219 631.75 c 1
 770.649 632.392 769.8 633.082 768.75 633.812 c 1
780 635.219 m 1
 779.436 635.348 778.86 635.508 778.281 635.656 c 1
 778.116 634.805 779.621 634.61 780 635.219 c 1
809.281 647.344 m 1
 814.078 643.843 807.635 640.857 809.281 647.344 c 1
863.531 646.094 m 0
 873.464 646.321 865.55 640.673 856.375 644.031 c 1
 858.125 645.594 l 1
 860.32 645.909 862.112 646.061 863.531 646.094 c 0
770.094 645.719 m 1
 778.587 645.886 767.083 640.188 770.094 645.719 c 1
835.281 644.719 m 1
 840.301 634.677 859.319 623.734 870.969 614.406 c 1
 870.834 614.42 870.71 614.437 870.469 614.437 c 0
 869.301 613.808 870.818 614.009 871.219 614.219 c 0
 883.359 604.434 887.189 596.452 857.719 593.187 c 1
 837.223 567.845 825.507 575.016 821.781 591.219 c 1
 822.135 580.097 818.227 568.828 810.688 561 c 1
 831.932 568.2 856.101 574.21 864.188 592.969 c 1
 868.875 594.781 l 1
 873.531 554.141 884.618 500.66 858.5 467.406 c 1
 846.89 463.685 848.832 465.739 851.406 469.531 c 1
 852.883 469.547 855.145 469.913 852.094 470.25 c 0
 851.994 470.228 851.933 470.208 851.844 470.187 c 1
 853.614 472.889 855.317 476.28 852.969 479.125 c 1
 857.789 479.586 865.059 485.3 851.938 481.687 c 1
 863.591 486.552 864.762 507.406 855.656 514.937 c 1
 865.569 500.207 848.35 479.937 850.812 509.344 c 1
 849.616 511.824 846.69 515.096 848.281 517.656 c 1
 846.627 517.7 844.834 517.469 842.875 516.875 c 1
 843.451 504.223 835.925 455.316 848.188 449.937 c 0
 848.523 450.173 849.177 450.485 850.25 450.875 c 0
 852.848 450.869 854.234 450.773 854.938 450.625 c 0
 855.883 451.086 856.898 451.683 857.969 452.437 c 0
 883.405 494.305 870.375 409.132 873 389.75 c 1
 873.428 353.056 874.38 316.274 871.375 279.656 c 1
 823.601 261.79 806.488 319.848 808.312 356.5 c 1
 814.031 391.754 787.773 433.061 809.938 462.781 c 1
 828.165 466.524 833.287 495.881 829.156 515.125 c 1
 829.074 512.562 828.149 510.213 826.781 508.25 c 1
 827.576 511.906 826.082 517.487 819.781 524.781 c 1
 810.706 510.169 815.621 503.409 820.688 503.25 c 1
 814.2 500.575 807.377 504.588 813.969 522.031 c 1
 816.25 526.281 l 1
 818.75 530.406 l 1
 822.363 528.086 824.874 525.668 826.531 523.281 c 1
 821.883 533.467 813.374 536.586 802.125 521.875 c 1
 821.333 549.17 778.431 547.757 774.312 527.219 c 1
 774.192 538.152 779.494 545.363 787.625 550.75 c 1
 784.544 550.624 781.289 550.841 777.844 551.5 c 1
 766.527 573.25 777.094 609.806 792.844 627.156 c 1
 808.585 623.287 817.522 612.422 820.594 600.031 c 1
 819.657 616.291 824.717 636.44 835.281 644.719 c 1
820.594 600.031 m 1
 820.773 596.917 821.156 593.936 821.781 591.219 c 1
 821.687 594.185 821.306 597.158 820.594 600.031 c 1
787.625 550.75 m 1
 797.211 551.143 804.986 555.08 810.688 561 c 1
 802.096 558.088 794.002 554.975 787.625 550.75 c 1
826.531 523.281 m 1
 827.618 520.899 828.509 518.142 829.156 515.125 c 1
 829.239 517.7 828.489 520.463 826.531 523.281 c 1
854.938 450.625 m 1
 852.199 449.289 849.986 449.149 848.188 449.938 c 1
 845.928 448.353 858.066 449.965 854.938 450.625 c 1
848.281 517.656 m 1
 851.231 517.578 853.678 516.574 855.656 514.938 c 1
 854.516 516.632 853.056 518.255 851.125 519.719 c 1
 849.656 519.118 848.761 518.428 848.281 517.656 c 1
793.75 644.438 m 1
 808.416 637.134 787.704 627.222 793.75 644.438 c 1
775.875 643.375 m 0
 783.464 643.784 774.376 633.186 772.969 642.875 c 1
 774.138 643.188 775.09 643.333 775.875 643.375 c 0
859.656 641.781 m 0
 862.402 641.847 855.78 634.914 856.062 640.375 c 1
 857.894 641.373 859.023 641.766 859.656 641.781 c 0
571.156 641.5 m 1
 599.046 629.257 635.525 587.451 629.25 563.25 c 1
 589.937 547.641 560.565 610.613 571.156 641.5 c 1
686.188 641 m 1
 686.885 628.542 671.105 638.304 686.188 641 c 1
867.188 640.594 m 0
 872.138 640.988 864.271 634.155 863 639.5 c 1
 864.92 640.191 866.271 640.521 867.188 640.594 c 0
593.312 639.938 m 1
 608.737 617.996 675.345 564.74 620.844 555.812 c 1
 674.151 573.973 593.516 611.629 593.312 639.938 c 1
849.875 638.469 m 1
 868.583 638.434 859.163 628.923 849.875 638.469 c 1
815.25 638.406 m 1
 832.812 629.888 805.866 632.712 815.25 638.406 c 1
834.5 637.75 m 1
 810.626 615.658 831.593 559.455 859.5 598.844 c 1
 900.239 610.356 836.16 623.012 834.5 637.75 c 1
741.688 637.375 m 1
 765.149 618.817 713.811 626.335 741.688 637.375 c 1
702.688 636.469 m 1
 699.965 634.957 705.41 634.957 702.688 636.469 c 1
690 636.438 m 1
 691.492 627.902 678.46 632.66 690 636.438 c 1
859.938 634.094 m 0
 861.373 634.094 863.837 633.409 867.719 631.656 c 1
 867.012 623.733 858.69 629.877 858.312 632.781 c 1
 858.557 625.944 850.919 634.553 858.312 632.844 c 1
 858.243 633.579 858.672 634.094 859.938 634.094 c 0
810.156 633.844 m 0
 823.215 634.247 811.187 622.203 808.812 633.781 c 1
 809.287 633.821 809.735 633.831 810.156 633.844 c 0
664.781 633.438 m 0
 665.457 633.489 666.552 633.329 668.188 632.844 c 1
 669.491 626.782 661.133 633.161 664.781 633.438 c 0
693.562 633.25 m 1
 698.724 627.193 682.391 630.374 693.562 633.25 c 1
882 632.688 m 1
 903.167 628.213 867.023 620.949 882 632.688 c 1
820.938 632.469 m 1
 823.599 630.904 818.252 631.013 820.938 632.469 c 1
834.906 632.406 m 1
 853.42 619.075 878.895 597.886 843.719 619.188 c 1
 841.501 619.265 839.703 619.056 838.25 618.625 c 1
 861.018 604.043 826.95 598.513 838.156 618.594 c 1
 825.128 614.603 841.572 592.481 854.406 599.719 c 1
 828.684 577.898 819.648 609.958 834.906 632.406 c 1
838.156 618.594 m 1
 838.187 618.603 838.219 618.616 838.25 618.625 c 1
 838.224 618.641 838.213 618.671 838.187 618.687 c 1
 838.17 618.657 838.173 618.624 838.156 618.594 c 1
800.312 629.719 m 1
 820.994 626.677 819.086 611.222 800.312 629.719 c 1
698.469 629.531 m 1
 719.727 615.17 752.697 632.967 770.312 617.469 c 1
 748.456 625.067 713.477 611.526 698.469 629.531 c 1
865.406 626.719 m 0
 865.9 626.728 866.612 626.636 867.594 626.344 c 0
 869.09 620.512 861.951 626.653 865.406 626.719 c 0
679.844 625.812 m 1
 682.549 624.842 678.166 623.787 679.844 625.812 c 1
660.875 623.031 m 1
 684.4 619.238 669.553 596.979 660.875 623.031 c 1
680.844 621.188 m 1
 683.391 620.229 678.13 619.838 680.844 621.188 c 1
746 619.312 m 0
 744.976 618.582 729.357 607.941 740.625 615.688 c 0
 745.065 618.693 746.341 619.556 746 619.312 c 0
682.156 619.062 m 1
 684.812 618.984 680.455 618.248 682.156 619.062 c 1
697.406 618.844 m 1
 717.117 610.67 684.785 596.569 697.406 618.844 c 1
706.625 618.5 m 1
 709.315 616.329 703.943 616.241 706.625 618.5 c 1
714.75 617.938 m 1
 719.974 609.927 703.704 605.924 714.75 617.938 c 1
729.875 615.031 m 1
 726.984 602.976 712.212 610.379 729.875 615.031 c 1
755.094 613.875 m 0
 755.363 613.863 755.663 613.84 756.031 613.781 c 0
 757.54 609.409 751.052 614.049 755.094 613.875 c 0
772.719 613.844 m 1
 767.099 599.057 750.191 612.167 772.719 613.844 c 1
760.25 613.656 m 1
 761.599 606.528 750.984 612.585 760.25 613.656 c 1
664.094 612.531 m 1
 671.369 610.109 663.432 607.147 664.094 612.531 c 1
681.625 611.75 m 1
 702.561 607.878 678.261 587.226 681.625 611.75 c 1
747.781 611.188 m 1
 739.036 590.214 721.6 605.113 747.781 611.188 c 1
671.219 609.844 m 1
 673.87 607.605 667.525 609.068 671.219 609.844 c 1
676.031 608.531 m 1
 680.253 606.527 672.399 606.614 676.031 608.531 c 1
716.562 607.344 m 0
 758.113 607.739 711.569 519.793 713.5 569.656 c 1
 710.211 598.316 677.496 595.717 703.844 575 c 1
 697.077 522.176 663.79 602.444 703.219 605.719 c 1
 709.781 606.625 l 2
 712.267 607.099 714.519 607.324 716.562 607.344 c 0
774.469 606.875 m 1
 782.984 594.703 759.665 603.596 774.469 606.875 c 1
661.531 606.562 m 1
 680.668 602.919 683.113 579.571 664.906 601.812 c 1
 661.531 606.562 l 1
765.594 605.562 m 0
 765.805 605.571 766.078 605.542 766.375 605.531 c 0
 768.413 603.322 762.429 605.435 765.594 605.562 c 0
656.344 603.875 m 1
 671.385 594.165 654.641 593.615 656.344 603.875 c 1
720.188 602.25 m 0
 715.138 602.45 707.362 598.82 719.531 600.531 c 1
 723.25 598.75 l 1
 724.215 601.287 722.483 602.159 720.188 602.25 c 0
764.5 601.812 m 0
 765.291 601.867 766.338 601.834 767.688 601.719 c 1
 765.86 597.687 758.963 601.434 764.5 601.812 c 0
696.812 600.969 m 1
 677.036 593.728 717.661 600.64 696.812 600.969 c 1
756.781 597.5 m 1
 772.85 586.27 714.18 589.271 753.344 596.625 c 1
 755.656 597.219 l 1
 756.781 597.5 l 1
664.281 596.562 m 1
 677.192 596.063 664.8 588.105 664.281 596.562 c 1
884.344 596.156 m 1
 896.788 574.283 893.264 521.667 882.812 517.031 c 1
 880.527 543.342 880.544 569.985 884.344 596.156 c 1
657.656 595.656 m 1
 670.261 590.716 650.675 591.514 657.656 595.656 c 1
717.719 595.031 m 1
 714.484 594.599 719.591 593.006 717.719 595.031 c 1
767.625 594.688 m 0
 768.392 594.668 769.522 594.443 771.062 593.875 c 1
 769.333 588.57 763.482 594.792 767.625 594.688 c 0
569.906 594.375 m 1
 585.687 575.699 615.958 552.99 609.844 529.906 c 1
 611.23 530.861 614.116 531.866 619.094 532.75 c 1
 614.983 549.455 633.623 558.751 647.562 557.875 c 1
 658.321 552.949 645.559 535.716 645.344 544.906 c 1
 642.774 536.533 636.432 526.366 640.062 543.406 c 1
 636.957 529.264 632.941 531.305 630.812 534.094 c 1
 630.878 533.948 630.93 533.878 631 533.719 c 0
 628.564 524.245 611.731 524.854 609.156 527.75 c 1
 607.821 524.094 605.532 520.436 602.094 516.781 c 1
 598.157 478.177 567.591 436.022 592.75 400.906 c 1
 572.525 385.119 563.826 344.908 601.906 357.344 c 1
 612.378 351.703 618.448 335.685 619.5 319 c 1
 621.324 345.362 615.067 371.311 611.875 397.375 c 1
 656.01 402.679 659.314 364.04 654.156 328.469 c 1
 659.149 346.347 665.538 365.063 663.531 378.438 c 1
 671.525 408.513 705.656 398.001 725.344 413.094 c 1
 757.97 378.096 756.405 324.046 791.5 290.125 c 1
 776.648 254.594 712.038 284.801 677.688 274.469 c 1
 654.235 274.9 648.11 286.18 648.875 301.75 c 1
 647.866 297.554 646.857 293.554 645.938 290.062 c 0
 633.059 258.67 647.689 360.579 628.031 323.375 c 1
 635.077 304.216 625.509 284.219 619.656 312.656 c 1
 619.313 287.402 607.298 263.424 581.375 274.219 c 1
 550.773 313.068 578.068 368.412 568.531 414.188 c 1
 567.652 474.26 569.873 534.304 569.906 594.375 c 1
619.656 312.656 m 1
 619.685 314.763 619.633 316.895 619.5 319 c 1
 619.411 317.709 619.317 316.418 619.188 315.125 c 0
 619.345 314.255 619.493 313.45 619.656 312.656 c 1
648.875 301.75 m 1
 650.831 309.888 652.786 319.017 654.156 328.469 c 1
 651.518 319.02 649.271 309.814 648.875 301.75 c 1
609.156 527.75 m 1
 609.42 528.472 609.653 529.185 609.844 529.906 c 1
 608.714 529.128 608.589 528.389 609.156 527.75 c 1
630.812 534.094 m 1
 628.617 538.991 629.096 536.343 630.812 534.094 c 1
645.344 544.906 m 1
 646.118 547.43 646.574 549.788 646.281 551.188 c 1
 645.578 548.352 645.31 546.329 645.344 544.906 c 1
720.906 593.156 m 1
 694.352 575.251 754.489 583.244 720.906 593.156 c 1
662.844 591.906 m 1
 665.391 590.947 660.13 590.557 662.844 591.906 c 1
700.094 591.813 m 1
 697.256 591.261 703.029 591.408 700.094 591.813 c 1
761.969 590.781 m 0
 763.27 590.788 765.325 590.383 768.344 589.344 c 1
 769.525 578.675 754.944 590.745 761.969 590.781 c 0
657.281 590.719 m 0
 657.597 590.708 657.953 590.662 658.375 590.594 c 0
 659.126 585.085 652.546 590.876 657.281 590.719 c 0
660.188 588.594 m 1
 663.551 588.327 658.85 585.965 660.188 588.594 c 1
703.344 587.875 m 1
 709.253 584.648 698.082 584.425 703.344 587.875 c 1
748.531 585.531 m 0
 764.674 586.019 749.75 565.273 739.594 583.844 c 1
 743.272 584.956 746.225 585.462 748.531 585.531 c 0
677.25 582.625 m 0
 695.553 582.308 665.969 576.266 672.938 582.594 c 1
 674.609 582.629 676.03 582.646 677.25 582.625 c 0
715.125 582.344 m 1
 712.017 580.14 719.665 581.295 715.125 582.344 c 1
657.656 581.844 m 0
 659.703 581.891 654.488 576.977 654.906 580.844 c 1
 656.308 581.551 657.184 581.833 657.656 581.844 c 0
658.188 577.156 m 1
 667.063 577.467 653.498 573.592 658.188 577.156 c 1
669.438 577 m 0
 677.607 577.294 660.096 573.069 664.219 576.562 c 1
 666.572 576.825 668.27 576.958 669.438 577 c 0
765.469 575.906 m 0
 773.556 575.809 767.75 570.189 760.094 573.969 c 1
 761.125 575.562 l 1
 762.882 575.818 764.313 575.92 765.469 575.906 c 0
753.938 573.219 m 1
 783.305 569.686 738.088 569.246 753.938 573.219 c 1
655 572.906 m 1
 667.409 572.784 649.129 569.672 655 572.906 c 1
673.812 572.625 m 0
 675.521 572.606 677.517 572.391 679.844 571.969 c 1
 668.246 556.574 657.295 572.805 673.812 572.625 c 0
737.875 569.531 m 1
 759.977 564.601 756.698 545.462 738.594 563.906 c 1
 737.875 569.531 l 1
758.281 569.438 m 0
 768.644 569.407 768.24 560.758 754.719 569.125 c 1
 756.018 569.334 757.209 569.441 758.281 569.438 c 0
708.281 566.531 m 0
 711.143 566.562 706.443 562.867 707.625 566.469 c 0
 707.887 566.507 708.09 566.529 708.281 566.531 c 0
653.5 566.188 m 0
 653.999 566.231 654.778 566.121 655.938 565.75 c 1
 654.545 562.933 651.338 566 653.5 566.188 c 0
761.406 565.531 m 0
 762.245 565.612 763.72 565.361 766.094 564.594 c 1
 771.177 555.003 756.877 565.095 761.406 565.531 c 0
677.219 562.969 m 0
 677.578 562.948 678.091 562.847 678.781 562.625 c 0
 679.412 559.167 674.704 563.117 677.219 562.969 c 0
675.531 561.719 m 1
 663.116 547.359 649.027 552.077 675.531 561.719 c 1
709.656 561.5 m 0
 711.289 561.307 707.183 557.397 707.469 560.906 c 1
 708.579 561.395 709.279 561.545 709.656 561.5 c 0
683.438 560.719 m 1
 673.805 538.804 655.822 557.66 683.438 560.719 c 1
655.125 559.344 m 1
 657.848 557.832 652.402 557.832 655.125 559.344 c 1
731.469 558.688 m 1
 754.493 547.948 721.885 545.197 731.469 558.688 c 1
767.125 558.25 m 0
 769.752 558.332 766.051 553.046 765.594 557.844 c 0
 766.256 558.12 766.75 558.238 767.125 558.25 c 0
661.812 557.781 m 1
 663.844 555.727 658.561 557.346 661.812 557.781 c 1
655.656 556.25 m 0
 655.958 556.267 656.323 556.271 656.75 556.25 c 0
 659.881 551.88 651.129 556 655.656 556.25 c 0
695.594 552.281 m 1
 691.108 538.079 675.412 544.839 695.594 552.281 c 1
721.344 550.719 m 1
 728.626 537.762 713.396 529.393 721.344 550.719 c 1
754.094 550.031 m 1
 757.181 547.771 751.007 547.771 754.094 550.031 c 1
686.031 549.719 m 1
 689.235 547.668 681.774 548.691 686.031 549.719 c 1
680.594 549.375 m 1
 679.94 547.697 679.043 546.6 678.094 545.938 c 1
 679.31 546.579 681.28 547.199 684.281 547.719 c 1
 684.387 539.73 673.047 542.574 677.5 545.594 c 1
 673.367 543.478 669.102 548.773 680.594 549.375 c 1
707.438 548.375 m 1
 722.267 542.491 694.5 536.927 707.438 548.375 c 1
767.969 548.031 m 1
 787.477 525.29 758.447 513.597 744.375 517 c 1
 756.075 512.913 762.971 509.581 759.125 508 c 1
 727.327 518.623 687.424 528.131 661.719 542.594 c 1
 678.182 536.429 717.931 525.965 741.594 517.969 c 1
 736.917 520.224 735.43 524.975 741.281 532.5 c 1
 749.912 538.149 760.276 540.927 767.969 548.031 c 1
741.594 517.969 m 1
 742.426 517.568 743.365 517.244 744.375 517 c 1
 743.464 517.318 742.562 517.642 741.594 517.969 c 1
678 545.875 m 1
 677.833 545.784 677.669 545.716 677.531 545.625 c 1
 677.684 545.705 677.848 545.774 678 545.875 c 1
695.594 544.719 m 1
 698.629 542.506 692.567 542.415 695.594 544.719 c 1
657 544.625 m 0
 665.16 544.415 653.633 537.023 655.094 544.562 c 0
 655.822 544.619 656.456 544.639 657 544.625 c 0
694.688 542.062 m 1
 697.295 539.851 691.041 541.293 694.688 542.062 c 1
698.188 542.062 m 1
 699.906 536.564 692.74 535.354 698.188 542.062 c 1
701.375 540.906 m 1
 703.73 535.974 697.255 537.35 701.375 540.906 c 1
693.906 540.125 m 1
 695.27 537.251 689.322 539.569 693.906 540.125 c 1
789.969 539.438 m 0
 794.805 539.325 789.776 533.912 788.875 539.375 c 1
 789.289 539.419 789.646 539.445 789.969 539.438 c 0
653.938 538.688 m 1
 689.258 519.239 731.556 517.187 766.875 499.344 c 1
 786.115 475.95 746.953 486.977 753.219 493.719 c 1
 743.04 496.054 732.839 499.647 722.719 503.781 c 1
 724.387 501.838 717.382 500.886 720.781 504.562 c 1
 696.227 514.78 672.314 528.197 651.062 535.781 c 1
 653.938 538.688 l 1
720.781 504.562 m 1
 721.426 504.294 722.073 504.045 722.719 503.781 c 1
 722.434 504.113 721.89 504.472 721 504.844 c 0
 720.902 504.746 720.866 504.654 720.781 504.562 c 1
785.656 538.344 m 1
 787.152 528.453 769.418 530.408 785.656 538.344 c 1
730.969 537.625 m 1
 739.185 532.774 728.368 527.936 730.969 537.625 c 1
794.812 537.188 m 1
 796.932 535.262 791.635 536.598 794.812 537.188 c 1
802.125 536.719 m 1
 799.565 527.488 791.051 531.428 802.125 536.719 c 1
739.375 536.406 m 1
 742.48 534.285 735.135 535.461 739.375 536.406 c 1
648.219 532.031 m 1
 681.182 522.698 654.341 520.393 648.219 532.031 c 1
640.5 526.719 m 1
 658.402 516.645 619.652 523.829 640.5 526.719 c 1
654.812 522.781 m 1
 674.291 510.787 655.557 509.548 653.938 522.531 c 1
 654.812 522.781 l 1
672.531 522.094 m 1
 675.991 519.821 667.97 517.316 672.531 522.094 c 1
792.25 521.906 m 1
 794.56 519.505 788.533 521.004 792.25 521.906 c 1
622.719 521.781 m 1
 647.274 507.609 597.511 511.814 622.719 521.781 c 1
675.875 520.281 m 0
 679.08 520.368 673.802 515.552 673.938 519.906 c 0
 674.782 520.16 675.417 520.269 675.875 520.281 c 0
646.75 518.281 m 1
 647.853 516.169 648.567 514.398 649 512.938 c 1
 649.375 513.781 649.863 514.716 650.5 515.75 c 1
 659.869 509.421 650.799 504.084 648.531 507.406 c 1
 644.823 504.514 632.658 514.632 646.75 518.281 c 1
648.531 507.406 m 1
 649.528 508.184 649.902 509.9 649 512.938 c 1
 647.777 510.187 647.852 508.401 648.531 507.406 c 1
678.531 518.125 m 1
 681.237 517.155 676.853 516.099 678.531 518.125 c 1
711.312 517.25 m 1
 703.123 515.936 715.11 512.185 711.312 517.25 c 1
681.188 517.031 m 1
 688.077 516.946 678.609 514.068 681.188 517.031 c 1
685.688 516 m 1
 718.912 508.752 714.922 499.062 685.688 516 c 1
793 515.469 m 1
 795.651 513.23 789.306 514.693 793 515.469 c 1
719.125 514.125 m 1
 710.83 511.363 724.921 506.937 719.125 514.125 c 1
612.844 514 m 1
 620.524 500.083 596.552 508.264 612.844 514 c 1
806.656 512.812 m 1
 811.347 481.026 752.741 511.906 800.062 509.906 c 1
 806.656 512.812 l 1
681.5 512.125 m 1
 686.07 510.714 679.342 505.839 681.5 512.125 c 1
632.281 511.969 m 1
 653.192 479.059 604.28 507.115 632.281 511.969 c 1
727.625 511.219 m 1
 726.906 509.094 l 1
 727.625 511.219 l 1
670.25 510.844 m 1
 691.901 485.905 645.367 501.768 670.25 510.844 c 1
689.031 508.562 m 1
 693.016 503.92 681.454 507.981 689.031 508.562 c 1
696.312 506.344 m 1
 715.855 504.724 685.134 491.623 696.312 506.344 c 1
884.781 505.781 m 1
 904.47 497.119 868.709 494.582 884.781 505.781 c 1
616.594 504.844 m 1
 641.011 487.243 595.906 493.692 616.594 504.844 c 1
647.25 504.75 m 1
 652.594 503.775 643.356 502.429 647.25 504.75 c 1
746.406 504.75 m 1
 738.979 501.452 751.722 500.517 746.406 504.75 c 1
655.094 504.094 m 1
 673.749 482.026 638.557 493.177 655.094 504.094 c 1
732.25 502.844 m 1
 728.415 500.551 736.085 500.551 732.25 502.844 c 1
735.656 502 m 1
 733.472 494.06 748.49 501.858 735.656 502 c 1
754.875 501.438 m 1
 748.436 500.138 757.783 495.658 754.875 501.438 c 1
688.781 501.188 m 1
 696.115 498.572 682.495 494.892 688.781 501.188 c 1
710.875 501 m 1
 702.847 484.846 680.058 492.572 710.875 501 c 1
762.781 499.25 m 1
 755.056 494.976 769.254 494.181 762.781 499.25 c 1
718.188 498.75 m 1
 707.515 476.344 679.498 484.039 711.719 495.469 c 1
 718.188 498.75 l 1
677.75 496.75 m 0
 678.267 496.776 678.83 496.741 679.438 496.656 c 1
 672.033 482.388 700.231 493.969 678.5 482.125 c 1
 672.255 484.248 669.993 496.366 677.75 496.75 c 0
645.625 496.719 m 1
 660.09 476.024 622.119 490.126 643.969 492.969 c 1
 644.938 495.156 l 1
 645.625 496.719 l 1
602.219 496 m 1
 627.624 486.715 588.928 469.281 602.219 496 c 1
744.406 495.531 m 1
 748.052 494.762 741.799 493.32 744.406 495.531 c 1
726.188 494.25 m 1
 738.993 492.024 721.605 485.958 726.188 494.25 c 1
747.844 493.875 m 1
 754.401 489.92 739.155 491.168 747.844 493.875 c 1
819.875 492.594 m 1
 822.988 491.215 816.54 491.387 819.875 492.594 c 1
805.406 492.156 m 1
 806.33 483.925 796.174 479.711 805.406 492.156 c 1
733.406 492.063 m 1
 743.945 489.95 727.46 484.809 733.406 492.063 c 1
817.719 490.844 m 1
 844.375 474.067 777.099 444.762 811.188 471.688 c 1
 839.157 484.69 787.682 483.993 817.719 490.844 c 1
779.094 490.625 m 1
 785.14 489.575 776.923 484.192 779.094 490.625 c 1
886.656 490.438 m 0
 886.88 490.438 887.134 490.428 887.375 490.406 c 0
 897.416 433.781 886.854 376.089 892.031 319.125 c 0
 894.411 301.413 883.107 262.367 879.625 302.969 c 1
 885.159 360.498 878.301 418.497 881.125 476.031 c 0
 881.198 480.431 879.731 490.436 886.656 490.438 c 0
717.5 489.625 m 0
 717.865 489.624 718.27 489.618 718.688 489.594 c 0
 719.696 479.049 706.185 489.67 717.5 489.625 c 0
626.656 489.531 m 1
 636.325 480.315 630.312 469.356 620.938 484.313 c 1
 622.062 488.156 l 1
 626.656 489.531 l 1
664.531 489.313 m 1
 681.65 464.653 645.973 477.415 664.531 489.313 c 1
740.375 488.094 m 1
 748.657 485.04 735.175 481.622 740.375 488.094 c 1
747.375 487.531 m 1
 758.107 485.387 743.407 474.733 747.375 487.531 c 1
786.781 486.875 m 1
 790.165 486.566 785.37 484.299 786.781 486.875 c 1
859.5 486.188 m 1
 856.826 484.943 861.974 485.19 859.5 486.188 c 1
781.25 485.906 m 1
 788.189 481.06 778.092 480.877 781.25 485.906 c 1
726.688 485.781 m 1
 745.691 482.29 716.158 467.199 726.688 485.781 c 1
863.438 485.562 m 1
 861.135 484.207 866.15 483.098 863.438 485.562 c 1
720.969 483.531 m 1
 728.976 481.707 716.83 478.708 720.969 483.531 c 1
790.969 482.5 m 1
 810.582 479.384 784.375 472.441 790.969 482.5 c 1
613.375 482.219 m 1
 639.205 460.801 587.815 468.964 613.375 482.219 c 1
708.281 482.031 m 1
 721.261 469.28 695.119 474.662 708.281 482.031 c 1
755.344 481.469 m 1
 778.438 482.042 754.503 463.008 755.344 481.469 c 1
597.125 481.219 m 1
 602.62 476.645 590.027 477.392 597.125 481.219 c 1
649.312 480.875 m 1
 673.969 467.756 630.189 464.453 649.312 480.875 c 1
859.125 480.875 m 1
 856.607 478.792 862.54 480.697 859.125 480.875 c 1
684.656 479.75 m 1
 690.278 469.927 675.63 477.806 684.656 479.75 c 1
740.75 479.031 m 1
 757.541 473.888 734.8 463.049 740.75 479.031 c 1
735.406 476.812 m 1
 737.607 473.863 730.808 474.32 735.406 476.812 c 1
773.125 475.812 m 1
 785.118 459.166 755.155 476.258 773.125 475.812 c 1
721.719 475.469 m 1
 737.833 459.73 705.835 468.014 721.719 475.469 c 1
792.25 475.344 m 1
 794.282 473.29 788.999 474.909 792.25 475.344 c 1
636.531 474.75 m 1
 655.317 450.034 615.642 471.769 636.531 474.75 c 1
673.406 473.969 m 1
 674.93 471.221 675.805 469.059 676.219 467.406 c 1
 676.971 468.439 677.998 469.572 679.375 470.812 c 1
 686.818 459.883 675.371 457.81 674.594 462.75 c 1
 670.458 462.253 661.95 470.661 673.406 473.969 c 1
674.594 462.75 m 1
 676.084 462.929 677.007 464.26 676.219 467.406 c 1
 674.811 465.472 674.41 463.92 674.594 462.75 c 1
693.438 473.562 m 1
 697.297 471.477 688.441 472.838 693.438 473.562 c 1
597.938 472.562 m 1
 625.661 461.235 578.688 452.523 597.938 472.562 c 1
754.281 472.281 m 1
 763.937 466.453 756.466 460.861 753.5 463.281 c 1
 754.457 461.05 748.383 462.791 753.281 463.5 c 1
 752.121 464.72 751.887 467.446 754.281 472.281 c 1
753.281 463.5 m 1
 753.353 463.424 753.421 463.345 753.5 463.281 c 1
 753.464 463.364 753.431 463.437 753.375 463.531 c 0
 753.337 463.526 753.318 463.505 753.281 463.5 c 1
808.812 472.25 m 1
 794.684 460.802 796.66 471.21 808.812 472.25 c 1
703 469.594 m 1
 717.216 455.778 687.677 461.285 703 469.594 c 1
781.438 468.688 m 1
 795.864 462.851 774.518 461.358 781.438 468.688 c 1
736.906 468.281 m 1
 752.497 451.336 714.986 464.847 736.781 462.625 c 1
 736.825 464.517 736.862 466.389 736.906 468.281 c 1
661.094 468.25 m 1
 662.218 465.644 662.854 463.534 663.156 461.781 c 1
 663.818 462.503 664.591 463.247 665.5 464.063 c 1
 677.045 453.87 661.33 449.81 660.031 455.125 c 1
 655.076 454.874 647.719 463.33 661.094 468.25 c 1
660.031 455.125 m 1
 662.242 455.237 663.961 457.109 663.156 461.781 c 1
 660.43 458.81 659.672 456.595 660.031 455.125 c 1
621.906 468.156 m 0
 622.245 468.154 622.609 468.13 622.969 468.063 c 1
 616.146 456.755 641.229 453.413 617.812 457.406 c 1
 614.295 461.229 616.831 468.189 621.906 468.156 c 0
689.375 467.594 m 1
 721.014 450.83 661.009 427.709 689.375 467.594 c 1
766.469 465.938 m 1
 781.744 464.174 761.693 448.898 766.469 465.938 c 1
793.625 464.938 m 1
 799.268 464.4 787.802 463.642 793.625 464.938 c 1
716.219 462.969 m 1
 729.061 451.743 698.502 453.427 716.375 459.969 c 1
 716.219 462.969 l 1
761.781 462.875 m 1
 765.019 459.401 757.589 458.962 761.781 462.875 c 1
591.938 460.938 m 1
 599.025 453.9 583.408 453.586 591.938 460.938 c 1
749.719 460.938 m 1
 760.705 455.468 749.365 448.533 747.719 453.219 c 1
 745.371 451.886 739.913 453.071 743.812 458.969 c 1
 745.809 458.031 747.062 457.157 747.812 456.375 c 1
 748.13 457.611 748.712 459.11 749.719 460.938 c 1
747.812 456.375 m 1
 747.458 454.997 747.458 453.961 747.719 453.219 c 1
 748.783 453.823 749.198 454.931 747.812 456.375 c 1
609.812 460.688 m 1
 634.214 433.523 581.116 458.109 609.812 460.688 c 1
849.469 460.219 m 0
 850.09 460.229 850.826 460.207 851.719 460.156 c 0
 859.542 453.641 840.157 460.06 849.469 460.219 c 0
643.688 460.094 m 1
 670.92 437.528 628.764 444.415 643.688 460.094 c 1
779.656 460.094 m 1
 792.935 455.586 774.78 445.602 779.656 460.094 c 1
775.688 457.344 m 1
 786.265 450.945 766.256 448.635 775.688 457.344 c 1
730.625 455.25 m 1
 734.423 441.786 719.812 449.484 729.719 454.094 c 1
 730.625 455.25 l 1
850.969 454.875 m 1
 860.371 452.99 837.721 454.031 850.969 454.875 c 1
761.938 454.188 m 1
 772.711 448.557 755.881 440.978 761.938 454.188 c 1
595.656 453.125 m 0
 596.232 453.139 596.88 453.139 597.562 453.125 c 0
 609.623 439.207 577.794 452.687 595.656 453.125 c 0
623.062 452.875 m 1
 625.704 452.831 621.339 452.006 623.062 452.875 c 1
757.094 452.812 m 1
 767.497 445.696 750.331 443.599 757.094 452.812 c 1
631.656 452.781 m 1
 632.87 450.092 633.378 448.112 633.406 446.656 c 1
 633.934 448.014 634.925 449.659 636.625 451.625 c 1
 653.339 443.461 633.163 437.323 632.906 444.438 c 1
 630.21 440.324 618.299 449.459 631.656 452.781 c 1
633.406 446.656 m 1
 633.083 445.824 632.889 445.092 632.906 444.469 c 1
 633.235 444.983 633.425 445.7 633.406 446.656 c 1
788.438 452.313 m 1
 802.815 443.725 778.32 440.983 788.438 452.313 c 1
775.344 449.625 m 1
 786.746 443.437 769.451 435.772 775.344 449.625 c 1
669.469 449.219 m 1
 671.016 446.706 672.063 444.689 672.719 443.031 c 1
 673.316 444.277 674.118 445.704 675.125 447.344 c 1
 677.019 439.323 671.926 434.566 671.188 437.063 c 1
 666.648 437.569 658.276 446.292 669.469 449.219 c 1
671.188 437.063 m 0
 673.284 436.829 674.563 438.367 672.719 443.031 c 1
 671.218 439.903 670.914 437.988 671.188 437.063 c 0
710.969 449.031 m 1
 721.63 448.82 709.229 436.025 710.969 449.031 c 1
744.125 448.312 m 1
 754.624 433.883 727.643 443.24 744.125 448.312 c 1
701.656 446.5 m 0
 702.079 446.516 702.507 446.518 702.938 446.5 c 0
 732.028 420.758 640.352 409.466 684.812 438.875 c 0
 689.804 442.446 695.308 446.268 701.656 446.5 c 0
769.812 445.625 m 1
 771.932 444.534 773.078 443.558 773.531 442.719 c 0
 775.044 441.211 774.048 440.618 773.25 440.75 c 0
 771.514 439.161 766.076 440.004 769.812 445.625 c 1
773.25 440.75 m 0
 773.757 441.214 773.975 441.897 773.531 442.719 c 1
 771.977 441.567 772.535 440.868 773.25 440.75 c 0
658.125 443.906 m 1
 675.868 432.928 640.551 438.613 658.125 443.906 c 1
722.938 443.438 m 1
 738.053 432.729 712.97 429.35 722.938 443.438 c 1
595.375 442.844 m 1
 616.053 435.155 660.728 448.491 662.938 417.969 c 1
 653.109 429.504 569.459 420.581 595.375 442.844 c 1
787.562 441.781 m 1
 786.953 428.996 777.328 438.282 787.562 441.781 c 1
757.344 441.438 m 1
 763.015 427.737 745.651 435.704 757.344 441.438 c 1
795.188 438.906 m 1
 799.073 437.227 790.881 437.296 795.188 438.906 c 1
794.094 436.219 m 1
 797.137 432.7 789.617 435.438 794.094 436.219 c 1
737 436.188 m 1
 747.037 428.731 734.539 423.196 734.812 430.094 c 1
 732.573 428.832 727.526 429.787 731.781 435.031 c 1
 733.668 434.155 734.788 433.318 735.344 432.594 c 1
 735.696 433.626 736.22 434.825 737 436.188 c 1
735.344 432.594 m 1
 735.011 431.618 734.84 430.798 734.812 430.094 c 1
 735.728 430.609 736.196 431.483 735.344 432.594 c 1
769.219 435.375 m 1
 777.141 433.77 766.311 425.056 769.219 435.375 c 1
763.812 433.656 m 1
 781.31 426.281 755.677 419.699 763.812 433.656 c 1
799.094 432.562 m 1
 790.364 410.849 709.853 401.293 763.281 419.531 c 0
 775.252 423.772 787.216 428.068 799.094 432.562 c 1
777.625 431.656 m 1
 781.365 427.154 769.805 430.707 777.625 431.656 c 1
749.438 428.938 m 1
 759.404 426.546 747.931 417.459 747.938 423.281 c 1
 746.81 421.129 740.458 421.21 743.938 427.625 c 1
 746.666 426.439 747.813 425.297 748.062 424.344 c 1
 748.229 425.286 748.597 426.472 749.25 427.969 c 2
 749.438 428.938 l 1
748.062 424.344 m 1
 747.992 423.947 747.938 423.591 747.938 423.281 c 1
 748.101 423.593 748.166 423.95 748.062 424.344 c 1
598.594 427.375 m 0
 618.303 427.302 657.197 412.861 615.438 421.844 c 0
 614.177 422.747 581.036 422.736 593.219 426.906 c 0
 594.737 427.248 596.555 427.383 598.594 427.375 c 0
718.125 423.719 m 1
 720.805 421.774 716.315 421.205 718.125 423.719 c 1
730.844 423.188 m 1
 741.349 421.874 727.176 409.2 730.906 422.094 c 1
 730.844 423.188 l 1
696.531 422.375 m 1
 701.585 421.315 692.968 419.527 696.531 422.375 c 1
798.594 421.844 m 1
 788 406.538 715.216 392.958 764.719 411 c 0
 775.819 415.198 787.053 419.037 798.594 421.844 c 1
596.562 420.906 m 0
 620.167 421.748 673.644 402.323 627.812 408.5 c 1
 616.121 412.046 595.056 404.409 590.344 419.938 c 1
 592.003 420.509 594.121 420.819 596.562 420.906 c 0
714.844 420.75 m 0
 715.055 420.759 715.297 420.761 715.594 420.75 c 0
 717.632 418.541 711.679 420.622 714.844 420.75 c 0
707.156 419.75 m 1
 709.791 418.772 705.514 417.767 707.156 419.75 c 1
690.812 419.719 m 1
 699.29 416.63 683.421 416.763 690.812 419.719 c 1
741.25 418.938 m 0
 746.561 419.247 737.582 413.253 739.969 418.812 c 0
 740.457 418.895 740.896 418.917 741.25 418.938 c 0
702.031 418.406 m 1
 705.589 413.028 695.317 417.614 702.031 418.406 c 1
720.062 417.5 m 1
 724.291 416.63 716.058 415.193 720.062 417.5 c 1
704.531 416.688 m 1
 722.597 409.207 699.877 408.15 704.531 416.688 c 1
684 416.25 m 1
 693.196 414.236 685.146 407.726 684 416.25 c 1
656.062 415.062 m 1
 669.068 411.467 651.289 412.668 656.062 415.062 c 1
678.5 414.812 m 1
 681.175 412.048 675.148 413.621 678.5 414.812 c 1
798.75 414.719 m 1
 791.682 388.562 720.129 388.954 774.375 405.25 c 0
 782.523 408.329 790.592 411.666 798.75 414.719 c 1
680.188 412.406 m 0
 682.801 412.341 675.46 411.265 678.406 412.344 c 0
 679.245 412.384 679.814 412.416 680.188 412.406 c 0
690.062 411.469 m 1
 693.312 409.134 687.477 409.774 690.062 411.469 c 1
672.844 411 m 1
 679.497 411.402 671.932 406.569 672.844 411 c 1
691.812 410.344 m 1
 694.456 410.291 690.09 409.44 691.812 410.344 c 1
683.031 409.688 m 0
 690.552 409.733 683.277 403.7 681.312 409.594 c 1
 681.951 409.656 682.53 409.685 683.031 409.688 c 0
693.375 408.406 m 1
 696.85 407.683 689.695 407.102 693.375 408.406 c 1
603.031 407.469 m 0
 622.232 407.426 660.396 394.483 620.125 400.562 c 0
 617.638 401.616 590.129 402.899 601.25 407.438 c 0
 601.827 407.464 602.412 407.47 603.031 407.469 c 0
678.875 407.438 m 1
 683.768 407.511 676.621 405.193 678.875 407.438 c 1
681.531 406.344 m 1
 684.187 406.265 679.83 405.529 681.531 406.344 c 1
695.656 406.344 m 1
 698.312 406.265 693.955 405.529 695.656 406.344 c 1
801.062 405.75 m 1
 800.51 395.929 791.705 389.716 782.25 386.406 c 1
 785.517 387.229 789.184 387.81 793.312 388.125 c 1
 801.25 392.438 l 1
 801.961 366.105 815.602 327.945 796.719 313.594 c 1
 803.096 294.174 805.258 266.328 791.188 299.031 c 1
 769.366 321.386 740.83 371.745 777.938 385.094 c 1
 760.572 380.635 744.875 385.678 777.594 396.312 c 0
 785.653 398.76 793.974 400.983 801.062 405.75 c 1
777.938 385.094 m 1
 779.376 385.463 780.815 385.904 782.25 386.406 c 1
 780.72 386.021 779.289 385.58 777.938 385.094 c 1
679.094 404.969 m 0
 681.421 404.59 682.28 404.315 682.312 404.125 c 1
 682.491 404.203 682.671 404.302 682.906 404.375 c 0
 685.911 400.476 679.346 402.407 681.938 403.938 c 1
 680.474 403.629 675.005 403.994 679.094 404.969 c 0
681.938 403.938 m 1
 682.161 403.985 682.326 404.046 682.312 404.125 c 1
 682.169 404.062 682.047 404.002 681.938 403.938 c 1
666 403.781 m 1
 668.635 402.803 664.358 401.798 666 403.781 c 1
676.062 401.781 m 1
 681.599 400.072 669.237 401.272 676.062 401.781 c 1
624.969 401.031 m 1
 623.202 400.117 627.627 401.031 624.969 401.031 c 1
677.156 399.719 m 1
 683.992 399.159 673.592 398.542 677.156 399.719 c 1
597.5 393.906 m 0
 598.986 394.005 600.485 393.744 601.938 392.969 c 0
 625.687 370.963 551.004 363.253 588.656 389.656 c 0
 591.06 391.719 594.231 393.689 597.5 393.906 c 0
604.969 369.219 m 1
 607.604 368.241 603.327 367.235 604.969 369.219 c 1
809.031 306.312 m 1
 824.332 273.924 804.91 270.998 809.031 306.312 c 1
636.531 289.75 m 1
 642.369 275.22 628.401 271.297 636.531 289.75 c 1
630.781 289.375 m 1
 637.861 274.172 619.016 268.727 630.781 289.375 c 1
622.031 288.469 m 1
 634.14 277.024 609.948 274.66 622.031 288.469 c 1
822.594 284.844 m 1
 837.43 276.441 808.658 272.287 822.594 284.844 c 1
808.625 284.781 m 0
 809.903 284.649 805.632 283.222 807.688 284.75 c 0
 808.13 284.797 808.442 284.8 808.625 284.781 c 0
808.438 282.781 m 1
 820.36 274.09 801.797 265.46 808.438 282.781 c 1
863.25 273.5 m 1
 866.882 254.153 858.695 251.795 863.25 273.5 c 1
879.281 273.375 m 1
 882.981 258.877 876.28 221.549 877.969 257.094 c 1
 878.094 265.281 l 1
 879.281 273.375 l 1
839.562 272.812 m 1
 842.109 271.854 836.848 271.463 839.562 272.812 c 1
873.719 272.812 m 1
 877.173 240.901 869.826 239.838 873.719 272.812 c 1
885.188 272.625 m 1
 889.289 257.54 882.093 222.941 883.438 257.688 c 0
 883.448 262.512 882.115 268.281 885.188 272.625 c 1
660.375 271.469 m 1
 664.911 247.217 656.112 233.911 658.969 265.531 c 0
 658.442 267.687 659.888 269.488 660.375 271.469 c 1
834.875 271.312 m 1
 836.475 267.647 832.278 265.975 834.875 271.312 c 1
839.406 270.812 m 1
 845.05 255.283 833.642 258.235 839.406 270.812 c 1
868.094 270.531 m 1
 874.032 262.38 862.832 257.688 868.094 270.531 c 1
777.906 270.188 m 1
 781.695 249.795 773.95 234.176 777 264.656 c 1
 777.906 270.188 l 1
783.719 270.188 m 1
 789.596 247 778.459 232.523 782.719 263.875 c 0
 783.052 265.975 783.386 268.088 783.719 270.188 c 1
655.125 270.156 m 1
 659.073 252.397 649.788 243.798 655.125 270.156 c 1
665.375 270.156 m 1
 668.61 254.078 660.671 249.279 665.375 270.156 c 1
675.781 270.156 m 1
 677.94 244.222 672.377 239.445 675.781 270.156 c 1
700.75 270.156 m 1
 703.636 253.771 698.451 231.494 700.312 262.5 c 2
 700.75 270.156 l 1
795.312 270.156 m 1
 799.549 239.691 788.637 233.791 795.312 270.156 c 1
711 269.844 m 1
 717.96 256.447 705.205 262.365 711 269.844 c 1
743.219 269.719 m 1
 747.574 246.659 738.462 231.264 741.031 262.906 c 1
 740.167 265.598 742.213 267.508 743.219 269.719 c 1
670.281 269.688 m 1
 673.211 233.437 665.693 239.793 670.281 269.688 c 1
721.469 269.563 m 1
 727.447 263.728 715.054 263.047 721.469 269.563 c 1
690.781 269.469 m 1
 692.942 262.18 688.458 246.095 689.781 262.719 c 1
 690.781 269.469 l 1
772.75 269.469 m 1
 776.937 265.074 769.059 266.377 772.75 269.469 c 1
715.875 269.438 m 1
 721.848 247.111 710.465 216.797 715.875 269.438 c 1
748.125 269.313 m 1
 751.739 250.817 745.121 228.989 747 260.188 c 1
 748.125 269.313 l 1
650.875 269.281 m 1
 654.181 263.361 646.626 262.065 650.875 269.281 c 1
695.219 269.25 m 1
 697.249 267.275 692.082 268.723 695.219 269.25 c 1
737.844 269.157 m 1
 742.349 248.209 730.861 237.131 737.844 269.157 c 1
789.438 269.157 m 1
 794.603 245.414 784.337 231.285 788.562 262.907 c 2
 789.438 269.157 l 1
610.188 268.813 m 1
 612.867 266.868 608.377 266.299 610.188 268.813 c 1
705.344 268.813 m 1
 709.016 250.687 701.398 247.998 705.344 268.813 c 1
762.812 268.813 m 1
 765.462 266.56 759.129 267.994 762.812 268.813 c 1
767.594 268.157 m 1
 770.89 265.201 764.297 265.201 767.594 268.157 c 1
614.531 268.125 m 1
 617.129 260.404 611.322 262.562 614.531 268.125 c 1
726.406 267.907 m 1
 729.848 229.935 722.53 235.864 726.406 267.907 c 1
753.219 267.469 m 1
 755.766 264.751 749.653 265.734 753.219 267.469 c 1
835.281 266.844 m 0
 839.659 266.838 833.795 263.29 834.281 266.782 c 0
 834.669 266.816 834.989 266.845 835.281 266.844 c 0
622.25 266.812 m 1
 635.875 264.606 616.617 260.79 622.25 266.812 c 1
758.031 266.812 m 1
 760.483 248.948 755.205 230.834 757.25 259.188 c 2
 758.031 266.812 l 1
762.594 266.812 m 1
 766.711 246.981 759.558 231.134 761.844 261.25 c 1
 762.594 266.812 l 1
695.188 266.719 m 1
 697.861 239.318 692.276 232.484 695.188 266.719 c 1
622.594 266 m 1
 622.75 264.688 l 1
 622.594 266 l 1
844.875 265.219 m 1
 846.525 261.321 842.095 261.07 844.875 265.219 c 1
731.844 265.188 m 1
 737.13 248.851 727.115 257.538 731.844 265.188 c 1
771.906 264.969 m 1
 776.053 247.775 768.642 250.299 771.906 264.969 c 1
834.5 264.781 m 1
 840.108 259.421 831.144 260.261 834.5 264.781 c 1
752.5 264.719 m 1
 759.472 249.299 746.762 253.773 752.5 264.719 c 1
587.375 264.375 m 1
 589.811 259.361 583.271 259.721 587.375 264.375 c 1
720.969 263.219 m 1
 724.825 260.426 717.613 257.391 720.969 263.219 c 1
825.031 262.812 m 1
 825.498 253.366 804.599 262.332 825.031 262.812 c 1
685.344 262.156 m 1
 688.491 259.178 681.801 258.796 685.344 262.156 c 1
711.438 259.75 m 1
 713.459 243.302 705.986 239.267 711.438 259.75 c 1
868.188 259.469 m 1
 873.235 242.985 863.253 231.859 868.188 259.469 c 1
844.438 258.656 m 1
 847.734 255.065 841.081 256.688 844.438 258.656 c 1
768 257.844 m 1
 770.435 248.002 764.356 241.254 768 257.844 c 1
721.688 256.406 m 1
 726.763 240.462 715.537 244.907 721.688 256.406 c 1
680.781 255.844 m 1
 683.56 250.594 676.034 242.654 680.781 255.844 c 1
732.312 254.094 m 1
 734.968 254.015 730.611 253.279 732.312 254.094 c 1
581.875 252.875 m 1
 585.043 249.867 578.81 247.566 581.875 252.875 c 1
863.531 251.5 m 1
 868.31 242.733 856.781 236.988 863.531 251.5 c 1
732.5 250.562 m 1
 736.954 240.08 726.918 236.961 732.5 250.562 c 1
706.531 249.219 m 1
 707.521 234.067 702.9 238.921 706.531 249.219 c 1
752.812 248.844 m 1
 756.246 244.422 749.379 244.422 752.812 248.844 c 1
582 247.875 m 1
 584.329 243.514 578.929 234.073 582 247.875 c 1
772.594 246.844 m 1
 778.459 239.136 763.687 231.431 772.594 246.844 c 1
689.844 245.719 m 1
 693.893 231.16 685.225 235.674 689.844 245.719 c 1
650 244.531 m 1
 653.826 239.42 645.41 237.056 650 244.531 c 1
577.125 244.188 m 1
 580.679 239.182 574.74 240.137 577.125 244.188 c 1
752.812 243.531 m 1
 755.605 241.996 750.02 241.996 752.812 243.531 c 1
654.75 242.625 m 1
 658.291 239.389 650.009 238.834 654.75 242.625 c 1
721.281 241.531 m 1
 723.965 240.589 719.708 239.485 721.281 241.531 c 1
710.719 240.875 m 1
 714.442 239.346 706.996 239.346 710.719 240.875 c 1
EndSplineSet
EndChar

StartChar: u1F0CF
Encoding: 127183 127183 31
Width: 1024
VWidth: 90
Flags: HW
LayerCount: 2
Fore
SplineSet
450.736 1015.89 m 0
 450.319 1015.89 450.026 1015.84 449.869 1015.83 c 0
 447.667 1015.6 445.876 1014.54 444.3 1013.49 c 0
 442.724 1012.45 441.309 1011.41 439.932 1010.86 c 0
 436.657 1009.56 434.262 1009.95 430.795 1009.69 c 0
 427.328 1009.44 423.088 1008.38 417.09 1004.16 c 0
 412.004 1000.58 410.81 993.82 409.954 988.493 c 0
 409.244 984.077 410.163 979.78 411.054 975.693 c 0
 411.945 971.606 412.785 967.723 412.355 964.026 c 0
 411.701 958.401 408.563 952.978 406.486 946.992 c 0
 401.892 933.757 398.559 924.727 398.416 915.725 c 0
 398.275 906.827 401.395 898.177 409.12 886.091 c 0
 409.185 885.976 409.221 885.874 409.287 885.758 c 2
 409.32 885.758 l 2
 409.335 885.735 409.339 885.714 409.353 885.691 c 0
 409.993 884.741 411.706 884.904 412.154 885.958 c 1
 413.577 884.376 415.189 882.902 417.156 881.658 c 0
 417.872 881.221 418.921 881.475 419.357 882.191 c 1
 422.397 878.466 426.436 875.41 431.729 873.257 c 1
 430.437 871.764 429.062 870.339 427.56 869.057 c 0
 427.413 868.932 427.27 868.838 427.127 868.724 c 0
 426.724 868.754 426.309 868.792 425.96 868.791 c 0
 425.598 868.787 425.238 868.655 424.959 868.424 c 0
 421.858 865.897 417.383 864.176 413.088 861.191 c 0
 405.682 856.043 396.584 850.312 391.113 842.89 c 0
 390.208 841.662 389.248 840.239 388.445 839.057 c 0
 388.044 838.466 387.695 837.955 387.412 837.557 c 0
 387.128 837.159 386.842 836.826 386.945 836.923 c 1
 382.753 832.951 377.222 824.739 369.371 816.523 c 0
 369.349 816.501 369.326 816.479 369.305 816.456 c 0
 360.885 807.661 350.128 798.772 341.828 791.223 c 0
 341.792 791.18 341.758 791.135 341.728 791.089 c 0
 330.495 778.796 315.779 763.752 311.816 750.055 c 0
 310.789 746.505 311.309 743.54 312.383 741.288 c 0
 313.457 739.036 315.018 737.431 315.884 736.388 c 0
 326.44 723.673 343.436 702.28 362.002 688.187 c 0
 376.148 677.449 389.746 669.294 404.218 660.72 c 0
 406.068 659.624 407.879 659.624 409.253 659.62 c 0
 410.326 659.617 411.086 659.509 411.788 659.22 c 2
 409.754 656.12 l 2
 409.365 655.527 409.437 654.672 409.92 654.153 c 0
 407.522 650.241 405.056 646.357 402.918 643.519 c 0
 384.084 618.53 376.998 599.326 364.169 563.918 c 0
 363.96 563.339 364.124 562.643 364.57 562.218 c 0
 374.611 552.669 386.712 552.628 398.349 549.384 c 0
 401.687 548.454 405.036 547.358 408.386 546.251 c 1
 406.035 527.193 408.838 508.149 409.653 489.85 c 0
 410.097 479.902 406.911 469.876 407.486 459.182 c 0
 407.688 455.429 406.531 451.463 405.118 447.649 c 0
 399.578 432.687 399.704 417.69 402.351 402.348 c 0
 406.367 379.063 420.718 360.426 430.428 340.38 c 0
 432.721 335.646 434.475 330.469 435.43 325.213 c 0
 435.423 325.189 435.37 325.169 435.363 325.146 c 0
 435.259 324.802 435.223 324.504 435.197 324.18 c 0
 435.143 323.531 435.161 322.802 435.197 322.046 c 0
 435.268 320.534 435.406 318.815 435.397 317.58 c 0
 435.379 315.11 435.351 312.994 434.83 310.813 c 0
 434.699 310.266 434.545 309.74 434.396 309.213 c 0
 434.27 309.076 434.168 308.917 434.096 308.746 c 2
 432.729 305.246 l 2
 432.634 304.981 432.61 304.69 432.662 304.413 c 2
 432.662 304.413 432.694 304.176 432.729 303.979 c 0
 432.239 302.528 431.744 301.043 431.395 299.446 c 0
 431.39 299.421 431.367 299.404 431.362 299.379 c 0
 430.933 297.681 430.457 295.8 430.161 293.879 c 0
 430.118 293.737 429.893 293.492 429.861 293.379 c 0
 429.727 292.902 429.637 292.396 429.561 291.779 c 0
 429.414 290.587 429.314 289.158 429.328 288.046 c 0
 429.326 288.003 429.33 287.955 429.328 287.912 c 0
 429.282 287.095 429.269 286.255 429.494 285.379 c 0
 430.278 282.327 432.595 280.583 433.563 278.879 c 0
 436.867 273.061 439.479 263.135 441.165 254.745 c 0
 442.852 246.354 443.666 239.478 443.666 239.478 c 2
 443.754 238.811 444.305 238.232 444.967 238.111 c 2
 447.701 237.578 l 2
 448.013 237.518 448.343 237.553 448.635 237.678 c 2
 451.203 238.778 l 2
 451.815 239.039 452.223 239.715 452.17 240.378 c 2
 449.969 263.945 l 2
 450.989 262.767 452.084 261.552 453.17 260.312 c 0
 454.231 259.108 455.175 257.849 455.938 256.512 c 0
 456.506 255.515 457.023 254.506 457.472 253.445 c 0
 458.683 249.528 459.695 245.259 460.84 241.378 c 0
 461.984 237.497 463.204 233.988 465.175 231.511 c 0
 468.948 226.77 476.888 224.933 485.549 224.444 c 0
 494.21 223.956 503.679 225.004 510.725 227.311 c 0
 512.327 227.835 514.329 228.553 515.694 230.311 c 0
 517.327 232.415 517.051 234.807 517.461 236.111 c 0
 517.66 236.742 518.634 237.825 518.628 239.678 c 0
 518.626 240.651 518.353 241.636 518.028 242.578 c 0
 518.047 242.818 518.064 243.08 518.062 243.245 c 0
 518.049 244.08 517.838 244.874 517.528 245.611 c 0
 517.524 245.623 517.532 245.634 517.528 245.645 c 0
 517.412 245.918 517.281 246.149 517.195 246.311 c 0
 516.822 247.002 516.314 247.556 515.827 248.111 c 0
 515.817 248.145 515.806 248.179 515.794 248.211 c 0
 515.784 248.223 515.771 248.234 515.761 248.245 c 0
 515.656 248.478 515.494 248.686 515.294 248.845 c 0
 515.085 249.013 514.868 249.196 514.627 249.378 c 0
 514.616 249.389 514.605 249.4 514.594 249.411 c 0
 514.557 249.438 514.571 249.405 514.56 249.411 c 1
 514.584 249.396 514.547 249.424 514.527 249.445 c 0
 510.406 252.523 506.147 254.021 502.822 256.445 c 0
 502.671 256.564 502.539 256.676 502.456 256.745 c 0
 502.434 256.756 502.411 256.767 502.389 256.778 c 0
 502.237 256.895 502.221 256.916 502.222 256.911 c 1
 502.209 256.922 502.202 256.934 502.189 256.945 c 0
 501.813 257.261 501.448 257.543 501.155 257.811 c 0
 501.15 257.816 501.127 257.806 501.122 257.811 c 0
 500.855 258.062 500.596 258.351 500.355 258.611 c 0
 500.344 258.623 500.333 258.634 500.322 258.645 c 0
 500.316 258.651 500.294 258.64 500.288 258.645 c 0
 500.273 258.662 500.271 258.694 500.255 258.711 c 0
 500.039 258.95 499.828 259.219 499.621 259.478 c 0
 499.579 259.514 499.534 259.547 499.488 259.578 c 0
 499.423 259.647 499.353 259.708 499.288 259.778 c 0
 499.277 259.789 499.266 259.8 499.255 259.811 c 0
 498.397 260.732 497.558 261.67 496.82 262.645 c 0
 495.778 264.032 494.854 265.488 494.019 267.011 c 0
 493.706 267.584 493.4 268.148 493.152 268.678 c 0
 493.143 268.699 493.162 268.69 493.152 268.711 c 0
 493.142 268.733 493.163 268.722 493.152 268.745 c 0
 491.267 272.818 490.209 277.49 488.417 282.045 c 0
 485.945 288.328 482.883 294.231 480.814 300.379 c 0
 480.116 302.455 479.619 304.669 479.114 306.912 c 1
 479.114 306.911 479.114 306.945 479.114 306.945 c 0
 479.083 307.08 479.044 307.211 479.014 307.345 c 0
 479.007 307.382 479.023 307.37 479.014 307.412 c 0
 479.014 307.423 479.014 307.434 479.014 307.445 c 0
 478.465 309.876 477.87 312.335 477.013 314.779 c 0
 476.795 315.4 476.59 316.006 476.346 316.612 c 0
 476.335 316.624 476.324 316.635 476.313 316.646 c 0
 476.304 316.667 476.323 316.657 476.313 316.679 c 0
 476.088 317.234 475.86 317.786 475.612 318.346 c 0
 474.116 321.79 472.475 324.861 471.144 328.346 c 0
 471.144 328.357 471.144 328.368 471.144 328.379 c 0
 470.94 328.888 470.59 329.914 470.277 330.913 c 0
 470.011 331.761 469.763 332.518 469.51 333.179 c 0
 469.466 333.296 469.422 333.473 469.377 333.579 c 0
 469.263 333.844 469.077 334.077 468.843 334.246 c 0
 467.302 338.512 465.872 342.794 464.875 347.146 c 0
 463.563 352.87 462.559 358.66 462.474 364.413 c 0
 462.286 377.099 460.35 389.403 458.673 401.747 c 0
 458.008 406.643 457.561 411.576 457.339 416.514 c 0
 456.911 426.001 454.834 437.46 455.972 446.348 c 0
 456.193 448.081 458.206 449.844 459.606 452.582 c 0
 460.882 455.076 462.152 457.637 463.174 460.348 c 0
 464.324 463.398 465.321 466.561 465.975 469.815 c 0
 466.684 473.339 466.375 476.674 467.043 479.516 c 0
 468.165 484.297 469.708 489.047 472.044 493.216 c 0
 477.128 502.287 480.459 511.898 484.082 521.35 c 0
 484.681 522.911 485.404 524.454 486.116 526.016 c 1
 489.234 526.043 492.366 526.162 495.52 526.55 c 0
 498.257 526.886 501.576 527.606 505.124 528.483 c 1
 518.518 514.839 532.142 501.042 547.807 489.716 c 0
 550.196 487.988 551.363 485.905 551.908 483.449 c 0
 552.454 480.993 552.31 478.166 551.775 475.315 c 0
 550.676 469.464 549.374 463.6 548.274 457.682 c 0
 543.793 433.587 548 409.828 552.875 386.58 c 0
 554.025 381.098 555.438 375.725 556.41 370.347 c 0
 557.533 364.13 558.734 357.955 559.078 351.813 c 0
 559.231 349.065 559.262 346.368 558.844 343.779 c 0
 558.46 341.4 557.756 339.071 556.777 336.879 c 0
 556.526 336.317 556.254 335.761 555.943 335.213 c 0
 555.938 335.204 555.948 335.188 555.943 335.179 c 0
 555.941 335.175 555.912 335.183 555.91 335.179 c 0
 555.907 335.173 555.914 335.156 555.91 335.146 c 0
 555.805 334.962 555.665 334.739 555.543 334.546 c 0
 554.983 334.603 554.401 334.338 554.076 333.879 c 2
 552.342 331.446 l 2
 551.978 330.939 551.95 330.213 552.275 329.68 c 0
 552.212 329.6 552.185 329.544 552.109 329.446 c 0
 551.971 329.271 551.819 329.056 551.608 328.813 c 0
 550.68 327.74 549.49 326.617 548.707 324.98 c 0
 548.543 324.635 548.404 324.302 548.307 323.98 c 0
 548.3 323.956 548.313 323.969 548.307 323.946 c 0
 548.307 323.935 548.307 323.924 548.307 323.913 c 0
 548.301 323.891 548.312 323.901 548.307 323.88 c 0
 548.303 323.86 548.311 323.865 548.307 323.846 c 0
 548.128 323.228 547.998 322.617 547.94 322.013 c 0
 547.918 321.784 547.88 321.48 547.874 321.08 c 0
 547.87 320.709 547.945 320.371 547.974 320.013 c 0
 547.974 320.002 547.973 319.991 547.974 319.98 c 0
 547.962 319.958 547.951 319.936 547.94 319.913 c 2
 545.739 313.547 l 2
 545.604 313.172 545.616 312.747 545.772 312.38 c 0
 551.975 297.621 555.042 280.66 556.643 262.879 c 0
 556.709 262.087 557.448 261.41 558.243 261.412 c 2
 562.578 261.412 l 2
 563.451 261.41 564.233 262.242 564.179 263.112 c 2
 562.378 296.046 l 1
 564.301 296.189 566.564 296.036 568.414 295.413 c 0
 569.639 294.725 570.82 293.979 571.915 293.18 c 0
 571.927 293.171 571.936 293.155 571.949 293.146 c 0
 576.542 288.454 579.086 282.4 581.185 276.313 c 0
 583.29 270.21 584.882 264.108 587.955 259.512 c 0
 589.778 256.786 593.573 255.182 597.925 253.912 c 0
 602.277 252.642 607.188 251.919 611.297 252.046 c 0
 615.091 252.162 620.027 251.989 624.469 252.712 c 0
 626.69 253.074 628.817 253.661 630.638 254.712 c 0
 632.459 255.763 633.974 257.345 634.739 259.479 c 0
 635.357 261.201 635.034 262.646 634.939 263.712 c 0
 634.845 264.779 634.825 265.557 635.673 266.912 c 0
 635.908 267.296 635.97 267.782 635.84 268.212 c 0
 635.381 269.724 634.26 270.689 633.105 271.479 c 0
 632.845 272.639 632.372 273.702 631.705 274.613 c 0
 631.415 275.014 631.138 275.331 630.871 275.613 c 0
 630.833 275.653 630.775 275.707 630.738 275.746 c 0
 630.738 275.779 l 2
 630.733 275.784 630.71 275.774 630.704 275.779 c 0
 630.522 275.969 630.325 276.167 630.104 276.346 c 0
 629.163 277.109 628.171 277.508 627.237 277.879 c 0
 627.242 277.938 627.232 277.986 627.237 278.046 c 0
 627.287 278.684 626.913 279.335 626.336 279.613 c 0
 620.949 282.202 617.077 282.378 614.232 283.346 c 0
 613.569 284.409 613.012 285.669 612.297 287.046 c 0
 611.037 289.478 609.827 291.976 608.763 294.48 c 0
 608.758 294.493 608.735 294.5 608.729 294.513 c 0
 607.741 297.002 607.038 299.51 606.829 301.98 c 0
 606.251 308.8 604.112 313.705 601.46 319.513 c 1
 601.427 319.513 l 1
 600.803 321.051 600.263 322.64 599.826 324.214 c 0
 599.821 324.241 599.799 324.251 599.793 324.28 c 0
 599.79 324.29 599.796 324.304 599.793 324.314 c 0
 599.793 324.325 599.793 324.336 599.793 324.347 c 0
 599.634 324.93 599.5 325.436 599.393 325.947 c 0
 599.184 326.94 599.052 327.983 598.926 329.047 c 0
 598.552 332.185 598.493 335.492 598.092 338.847 c 0
 597.521 343.627 596.641 348.29 596.191 352.914 c 0
 595.763 357.324 595.731 361.825 595.358 366.414 c 0
 594.335 378.999 596.309 391.557 597.525 404.348 c 0
 597.958 408.898 598.661 413.547 598.892 418.282 c 0
 599.179 424.133 599.056 429.926 598.892 435.716 c 0
 598.752 440.678 597.88 445.471 598.092 450.016 c 0
 598.309 454.656 599.397 459.342 600.226 464.183 c 0
 600.962 468.48 601.546 472.733 602.627 476.783 c 0
 603.29 479.267 604.508 481.782 605.328 484.617 c 0
 605.806 486.268 605.945 487.531 606.028 488.684 c 0
 606.112 489.836 606.153 490.867 606.462 492.284 c 0
 608.066 499.647 603.735 506.47 600.56 511.617 c 0
 597.634 516.359 594.918 521.292 592.19 526.218 c 0
 589.2 531.616 586.125 536.901 583.587 542.385 c 0
 581.843 546.15 580.525 550.261 578.818 554.318 c 1
 579.849 555.218 581.019 556.252 581.019 556.252 c 2
 581.578 556.778 581.668 557.729 581.219 558.352 c 2
 581.219 558.352 571.898 570.994 566.18 579.619 c 0
 566.178 579.624 566.149 579.614 566.147 579.619 c 0
 564.068 583.485 561.967 587.335 559.611 591.086 c 0
 556.349 596.279 552.848 601.383 548.94 606.186 c 0
 548.917 606.219 548.896 606.253 548.873 606.286 c 0
 545.766 610.775 542.613 615.064 539.37 618.686 c 0
 536.951 621.387 534.422 623.084 532.567 625.053 c 0
 532.235 625.574 529.717 629.741 530.066 638.32 c 0
 530.088 638.854 530.165 639.564 530.233 640.253 c 0
 531.091 640.724 531.954 641.164 532.634 641.82 c 0
 535.374 644.466 536.696 648.098 537.669 651.353 c 0
 538.124 652.874 538.3 654.83 538.403 656.487 c 0
 538.489 657.886 538.499 658.689 538.503 659.02 c 0
 538.689 659.32 539.335 660.385 540.203 662.12 c 0
 541.186 664.083 542.256 666.399 542.337 668.62 c 0
 542.408 670.561 541.974 672.855 540.303 674.454 c 0
 539.425 675.294 538.421 675.599 537.435 675.854 c 0
 537.11 675.938 536.878 675.961 536.568 676.02 c 1
 537.867 677.981 539.627 680.754 539.636 683.621 c 0
 539.643 685.893 538.32 687.384 537.469 688.621 c 0
 537.711 694.762 537.688 700.879 537.802 707.088 c 0
 538.513 710.925 539.23 713.861 539.236 713.888 c 0
 539.236 713.921 l 2
 539.303 714.093 541.071 718.649 542.938 724.621 c 0
 544.839 730.705 546.798 738.002 546.939 743.388 c 0
 547.076 748.594 545.595 755.642 544.071 761.689 c 0
 544.092 762.491 544.152 763.287 544.238 763.956 c 0
 544.69 767.481 546.238 770.423 548.006 773.556 c 0
 549.763 776.669 551.71 779.966 552.608 784.056 c 0
 552.613 784.081 552.636 784.097 552.641 784.123 c 2
 552.608 784.123 l 1
 557.878 804.735 544.597 822.91 533.901 835.124 c 0
 534.481 835.761 535.014 836.641 534.868 837.757 c 0
 533.495 848.227 529.25 856.392 522.897 861.657 c 0
 519.654 864.345 515.858 866.217 511.692 867.324 c 1
 512.607 868.073 513.532 868.801 514.593 869.658 c 0
 516.068 870.847 517.576 872.296 518.261 874.391 c 0
 519.497 878.169 518.135 882.508 517.028 886.958 c 0
 515.92 891.408 514.976 895.927 515.861 899.425 c 0
 516.227 900.872 517.433 902.915 518.795 904.925 c 2
 517.695 901.692 l 2
 517.5 901.002 517.833 900.203 518.462 899.858 c 0
 519.09 899.513 519.951 899.657 520.429 900.192 c 0
 525.186 906.058 527.854 912.289 528.632 919.492 c 1
 530.048 919.877 531.489 920.48 532.9 921.592 c 0
 533.768 922.286 533.531 923.909 532.5 924.325 c 0
 531.734 924.643 531.324 925.192 530.966 926.359 c 0
 530.608 927.526 530.463 929.225 530.366 931.126 c 0
 530.172 934.927 530.222 939.593 528.132 943.559 c 0
 526.719 946.24 526.454 949.4 526.098 952.859 c 0
 525.742 956.319 525.276 960.084 523.163 963.693 c 0
 518.991 970.818 517.667 975.144 514.06 979.927 c 0
 509.993 985.319 505.914 988.573 502.455 993.76 c 0
 498.702 999.389 491.529 1000.7 486.183 1002.06 c 1
 483.389 1005.36 480.499 1009.05 476.179 1011.06 c 0
 471.037 1013.46 465.495 1012 461.173 1012.83 c 0
 458.241 1013.39 454.945 1015.92 450.736 1015.89 c 0
406.319 927.359 m 1
 405.499 921.017 404.806 914.631 404.885 908.559 c 0
 404.906 906.927 405.133 905.375 405.285 903.792 c 1
 404.445 907.281 403.98 910.638 404.051 913.992 c 0
 404.142 918.262 404.972 922.646 406.319 927.359 c 1
411.054 910.225 m 1
 411.206 905.737 411.551 901.359 412.421 897.325 c 0
 412.822 895.469 413.474 893.758 414.089 892.025 c 1
 411.847 896.87 410.884 902.027 410.887 907.459 c 0
 410.888 908.368 411.008 909.303 411.054 910.225 c 1
422.692 891.892 m 1
 426.403 885.114 430.752 880.867 435.53 878.558 c 1
 435.014 877.658 434.334 876.843 433.729 875.991 c 1
 428.246 879.585 425.216 884.048 423.392 889.058 c 0
 423.063 889.963 422.948 890.957 422.692 891.892 c 1
509.425 890.458 m 1
 509.628 889.481 509.654 889.383 509.892 888.125 c 0
 510.5 884.904 511.077 881.097 511.059 879.525 c 0
 511.009 875.053 509.527 872.755 507.924 868.058 c 0
 507.913 868.036 507.902 868.014 507.891 867.991 c 0
 504.97 868.411 501.943 868.613 498.754 868.291 c 0
 494.56 867.867 491.83 867.492 490.785 867.691 c 0
 489.451 867.946 487.541 868.175 485.816 868.558 c 0
 484.335 868.886 483.383 869.394 482.948 869.691 c 0
 483.201 871.731 483.601 873.422 484.082 874.958 c 1
 488.862 874.031 494.586 873.305 498.754 875.325 c 0
 500.276 876.062 501.162 877.41 501.756 878.758 c 0
 502.022 879.363 502.082 879.924 502.256 880.525 c 1
 503.059 877.349 503.695 874.142 503.756 870.791 c 0
 503.721 869.953 504.452 869.159 505.29 869.125 c 0
 506.128 869.09 506.923 869.82 506.958 870.658 c 0
 507.26 873.432 507.966 876.416 508.191 879.491 c 0
 508.386 882.157 508.118 884.936 506.791 887.558 c 0
 507.557 888.254 508.456 889.273 509.425 890.458 c 1
405.585 787.389 m 1
 406.729 785.092 409.974 778.587 412.855 774.689 c 0
 416.622 769.592 421.816 765.232 425.126 760.522 c 0
 429.893 753.74 432.257 750.182 434.063 742.289 c 0
 436.6 731.197 437.369 717.548 435.23 706.455 c 1
 433.889 705.844 433.664 704.945 432.662 703.554 c 0
 428.911 698.347 423.793 691.313 419.457 686.121 c 1
 417.375 686.063 415.979 685.811 414.722 685.554 c 0
 414.563 685.731 414.419 685.897 414.222 686.087 c 0
 413.523 686.763 412.533 687.589 411.321 688.588 c 0
 408.897 690.584 405.545 693.245 401.784 696.354 c 0
 394.262 702.573 385.217 710.613 379.475 718.321 c 0
 372.879 727.178 362.533 744.596 361.002 747.189 c 1
 361.678 747.528 362.42 747.961 363.269 748.489 c 0
 365.142 749.654 367.416 751.23 369.772 753.022 c 0
 374.482 756.606 379.466 760.928 382.143 764.389 c 0
 387.068 770.756 394.607 777.131 400.683 782.923 c 0
 402.08 784.254 403.883 785.859 405.585 787.389 c 1
EndSplineSet
EndChar
